M48
METRIC,TZ
G90
M71
T1C1.778
T2C0.9
T3C0.35
T4C1.2
M95
T1
X10.500000Y-10.500000
X149.500000Y-86.500000
X149.500000Y-10.500000
X10.500000Y-86.500000
T2
X101.250000Y-6.500000
X104.750000Y-6.500000
T3
X149.500000Y-39.500000
X98.000000Y-11.000000
X104.000000Y-39.000000
X117.000000Y-30.000000
X21.000000Y-42.500000
X22.000000Y-34.500000
X111.000000Y-27.500000
X98.250000Y-15.500000
X47.000000Y-57.500000
X80.000000Y-57.500000
X130.700000Y-62.500000
X93.000000Y-87.500000
X108.630847Y-18.974463
X121.500000Y-13.500000
X113.000000Y-17.500000
X142.000000Y-29.500000
X102.000000Y-21.500000
X108.000000Y-11.000000
X109.200000Y-21.500000
X142.089522Y-34.061618
X113.000000Y-15.500000
T4
X147.000000Y-30.000000
X152.000000Y-30.000000
X152.000000Y-15.500000
X149.500000Y-30.000000
X147.000000Y-15.500000
X8.000000Y-30.000000
X13.000000Y-30.000000
X13.000000Y-15.500000
X10.500000Y-30.000000
X8.000000Y-15.500000
M30
