G04                                                      *
G04 Greetings!                                           *
G04 This Gerber was generated by PCBmodE, an open source *
G04 PCB design software. Get it here:                    *
G04                                                      *
G04   http://pcbmode.com                                 *
G04                                                      *
G04 Also visit                                           *
G04                                                      *
G04   http://boldport.com                                *
G04                                                      *
G04 and follow @boldport / @pcbmode for updates!         *
G04                                                      *

G04 leading zeros omitted (L); absolute data (A); 6 integer digits and 6 fractional digits *
%FSLAX66Y66*%

G04 mode (MO): millimeters (MM) *
%MOMM*%

G04 Aperture definitions *
%ADD10C,0.001X*%
%ADD11C,0.001X*%
%ADD20C,0.05X*%

%LPD*%
D20*
G01X0000000Y-48500000D02*
G01X0000000Y-9000000D01*
G01X0000000Y-9000000D01*
G01X0001206Y-8851169D01*
G01X0004811Y-8702920D01*
G01X0010796Y-8555274D01*
G01X0019144Y-8408247D01*
G01X0029835Y-8261860D01*
G01X0042851Y-8116130D01*
G01X0058173Y-7971076D01*
G01X0075784Y-7826716D01*
G01X0095664Y-7683069D01*
G01X0117795Y-7540153D01*
G01X0142158Y-7397988D01*
G01X0168735Y-7256591D01*
G01X0197507Y-7115981D01*
G01X0228457Y-6976176D01*
G01X0261564Y-6837196D01*
G01X0296811Y-6699058D01*
G01X0334179Y-6561781D01*
G01X0373650Y-6425384D01*
G01X0415205Y-6289886D01*
G01X0458826Y-6155304D01*
G01X0504494Y-6021657D01*
G01X0552190Y-5888964D01*
G01X0601896Y-5757244D01*
G01X0653594Y-5626514D01*
G01X0707265Y-5496794D01*
G01X0762890Y-5368101D01*
G01X0820451Y-5240455D01*
G01X0879929Y-5113875D01*
G01X0941306Y-4988377D01*
G01X1004564Y-4863982D01*
G01X1069683Y-4740707D01*
G01X1136645Y-4618571D01*
G01X1205432Y-4497593D01*
G01X1276026Y-4377791D01*
G01X1348407Y-4259184D01*
G01X1422557Y-4141790D01*
G01X1498458Y-4025628D01*
G01X1576090Y-3910716D01*
G01X1655437Y-3797073D01*
G01X1736478Y-3684717D01*
G01X1819196Y-3573667D01*
G01X1903571Y-3463941D01*
G01X1989586Y-3355559D01*
G01X2077222Y-3248538D01*
G01X2166461Y-3142896D01*
G01X2257283Y-3038654D01*
G01X2349670Y-2935828D01*
G01X2443604Y-2834438D01*
G01X2539067Y-2734502D01*
G01X2636039Y-2636039D01*
G01X2734502Y-2539067D01*
G01X2834438Y-2443604D01*
G01X2935828Y-2349670D01*
G01X3038654Y-2257283D01*
G01X3142896Y-2166461D01*
G01X3248538Y-2077222D01*
G01X3355559Y-1989586D01*
G01X3463941Y-1903571D01*
G01X3573667Y-1819196D01*
G01X3684717Y-1736478D01*
G01X3797073Y-1655437D01*
G01X3910716Y-1576090D01*
G01X4025628Y-1498458D01*
G01X4141790Y-1422557D01*
G01X4259184Y-1348407D01*
G01X4377791Y-1276026D01*
G01X4497593Y-1205432D01*
G01X4618571Y-1136645D01*
G01X4740707Y-1069683D01*
G01X4863982Y-1004564D01*
G01X4988377Y-0941306D01*
G01X5113875Y-0879929D01*
G01X5240455Y-0820451D01*
G01X5368101Y-0762890D01*
G01X5496794Y-0707265D01*
G01X5626514Y-0653594D01*
G01X5757244Y-0601896D01*
G01X5888964Y-0552190D01*
G01X6021657Y-0504494D01*
G01X6155304Y-0458826D01*
G01X6289886Y-0415205D01*
G01X6425384Y-0373650D01*
G01X6561781Y-0334179D01*
G01X6699058Y-0296811D01*
G01X6837196Y-0261564D01*
G01X6976176Y-0228457D01*
G01X7115981Y-0197507D01*
G01X7256591Y-0168735D01*
G01X7397988Y-0142158D01*
G01X7540153Y-0117795D01*
G01X7683069Y-0095664D01*
G01X7826716Y-0075784D01*
G01X7971076Y-0058173D01*
G01X8116130Y-0042851D01*
G01X8261860Y-0029835D01*
G01X8408247Y-0019144D01*
G01X8555274Y-0010796D01*
G01X8702920Y-0004811D01*
G01X8851169Y-0001206D01*
G01X9000000Y-0000000D01*
G01X9000000Y-0000000D01*
G01X80000000Y-0000000D01*
G01X151000000Y-0000000D01*
G01X151000000Y-0000000D01*
G01X151148831Y-0001206D01*
G01X151297080Y-0004811D01*
G01X151444726Y-0010796D01*
G01X151591753Y-0019144D01*
G01X151738140Y-0029835D01*
G01X151883870Y-0042851D01*
G01X152028924Y-0058173D01*
G01X152173284Y-0075784D01*
G01X152316931Y-0095664D01*
G01X152459847Y-0117795D01*
G01X152602012Y-0142158D01*
G01X152743409Y-0168735D01*
G01X152884019Y-0197507D01*
G01X153023824Y-0228457D01*
G01X153162804Y-0261564D01*
G01X153300942Y-0296811D01*
G01X153438219Y-0334179D01*
G01X153574616Y-0373650D01*
G01X153710114Y-0415205D01*
G01X153844696Y-0458826D01*
G01X153978343Y-0504494D01*
G01X154111036Y-0552190D01*
G01X154242756Y-0601896D01*
G01X154373486Y-0653594D01*
G01X154503206Y-0707265D01*
G01X154631899Y-0762890D01*
G01X154759545Y-0820451D01*
G01X154886125Y-0879929D01*
G01X155011623Y-0941306D01*
G01X155136018Y-1004564D01*
G01X155259293Y-1069683D01*
G01X155381429Y-1136645D01*
G01X155502407Y-1205432D01*
G01X155622209Y-1276026D01*
G01X155740816Y-1348407D01*
G01X155858210Y-1422557D01*
G01X155974372Y-1498458D01*
G01X156089284Y-1576090D01*
G01X156202927Y-1655437D01*
G01X156315283Y-1736478D01*
G01X156426333Y-1819196D01*
G01X156536059Y-1903571D01*
G01X156644441Y-1989586D01*
G01X156751462Y-2077222D01*
G01X156857104Y-2166461D01*
G01X156961346Y-2257283D01*
G01X157064172Y-2349670D01*
G01X157165562Y-2443604D01*
G01X157265498Y-2539067D01*
G01X157363961Y-2636039D01*
G01X157460933Y-2734502D01*
G01X157556396Y-2834438D01*
G01X157650330Y-2935828D01*
G01X157742717Y-3038654D01*
G01X157833539Y-3142896D01*
G01X157922778Y-3248538D01*
G01X158010414Y-3355559D01*
G01X158096429Y-3463941D01*
G01X158180804Y-3573667D01*
G01X158263522Y-3684717D01*
G01X158344563Y-3797073D01*
G01X158423910Y-3910716D01*
G01X158501542Y-4025628D01*
G01X158577443Y-4141790D01*
G01X158651593Y-4259184D01*
G01X158723974Y-4377791D01*
G01X158794568Y-4497593D01*
G01X158863355Y-4618571D01*
G01X158930317Y-4740707D01*
G01X158995436Y-4863982D01*
G01X159058694Y-4988377D01*
G01X159120071Y-5113875D01*
G01X159179549Y-5240455D01*
G01X159237110Y-5368101D01*
G01X159292735Y-5496794D01*
G01X159346406Y-5626514D01*
G01X159398104Y-5757244D01*
G01X159447810Y-5888964D01*
G01X159495506Y-6021657D01*
G01X159541174Y-6155304D01*
G01X159584795Y-6289886D01*
G01X159626350Y-6425384D01*
G01X159665821Y-6561781D01*
G01X159703189Y-6699058D01*
G01X159738436Y-6837196D01*
G01X159771543Y-6976176D01*
G01X159802493Y-7115981D01*
G01X159831265Y-7256591D01*
G01X159857842Y-7397988D01*
G01X159882205Y-7540153D01*
G01X159904336Y-7683069D01*
G01X159924216Y-7826716D01*
G01X159941827Y-7971076D01*
G01X159957149Y-8116130D01*
G01X159970165Y-8261860D01*
G01X159980856Y-8408247D01*
G01X159989204Y-8555274D01*
G01X159995189Y-8702920D01*
G01X159998794Y-8851169D01*
G01X160000000Y-9000000D01*
G01X160000000Y-9000000D01*
G01X160000000Y-48500000D01*
G01X160000000Y-88000000D01*
G01X160000000Y-88000000D01*
G01X159998794Y-88148831D01*
G01X159995189Y-88297080D01*
G01X159989204Y-88444726D01*
G01X159980856Y-88591752D01*
G01X159970165Y-88738140D01*
G01X159957149Y-88883870D01*
G01X159941827Y-89028924D01*
G01X159924216Y-89173284D01*
G01X159904336Y-89316931D01*
G01X159882205Y-89459847D01*
G01X159857842Y-89602012D01*
G01X159831265Y-89743409D01*
G01X159802493Y-89884019D01*
G01X159771543Y-90023824D01*
G01X159738436Y-90162804D01*
G01X159703189Y-90300942D01*
G01X159665821Y-90438219D01*
G01X159626350Y-90574616D01*
G01X159584795Y-90710114D01*
G01X159541174Y-90844696D01*
G01X159495506Y-90978343D01*
G01X159447810Y-91111036D01*
G01X159398104Y-91242756D01*
G01X159346406Y-91373486D01*
G01X159292735Y-91503206D01*
G01X159237110Y-91631899D01*
G01X159179549Y-91759545D01*
G01X159120071Y-91886125D01*
G01X159058694Y-92011623D01*
G01X158995436Y-92136018D01*
G01X158930317Y-92259293D01*
G01X158863355Y-92381429D01*
G01X158794568Y-92502407D01*
G01X158723974Y-92622209D01*
G01X158651593Y-92740816D01*
G01X158577443Y-92858210D01*
G01X158501542Y-92974372D01*
G01X158423910Y-93089284D01*
G01X158344563Y-93202927D01*
G01X158263522Y-93315283D01*
G01X158180804Y-93426333D01*
G01X158096429Y-93536059D01*
G01X158010414Y-93644441D01*
G01X157922778Y-93751462D01*
G01X157833539Y-93857104D01*
G01X157742717Y-93961346D01*
G01X157650330Y-94064172D01*
G01X157556396Y-94165562D01*
G01X157460933Y-94265498D01*
G01X157363961Y-94363961D01*
G01X157265498Y-94460933D01*
G01X157165562Y-94556396D01*
G01X157064172Y-94650330D01*
G01X156961346Y-94742717D01*
G01X156857104Y-94833539D01*
G01X156751462Y-94922778D01*
G01X156644441Y-95010414D01*
G01X156536059Y-95096429D01*
G01X156426333Y-95180804D01*
G01X156315283Y-95263522D01*
G01X156202927Y-95344563D01*
G01X156089284Y-95423910D01*
G01X155974372Y-95501542D01*
G01X155858210Y-95577443D01*
G01X155740816Y-95651593D01*
G01X155622209Y-95723974D01*
G01X155502407Y-95794568D01*
G01X155381429Y-95863355D01*
G01X155259293Y-95930317D01*
G01X155136018Y-95995436D01*
G01X155011623Y-96058694D01*
G01X154886125Y-96120071D01*
G01X154759545Y-96179549D01*
G01X154631899Y-96237110D01*
G01X154503206Y-96292735D01*
G01X154373486Y-96346406D01*
G01X154242756Y-96398104D01*
G01X154111036Y-96447810D01*
G01X153978343Y-96495506D01*
G01X153844696Y-96541174D01*
G01X153710114Y-96584795D01*
G01X153574616Y-96626350D01*
G01X153438219Y-96665821D01*
G01X153300942Y-96703189D01*
G01X153162804Y-96738436D01*
G01X153023824Y-96771543D01*
G01X152884019Y-96802493D01*
G01X152743409Y-96831265D01*
G01X152602012Y-96857842D01*
G01X152459847Y-96882205D01*
G01X152316931Y-96904336D01*
G01X152173284Y-96924216D01*
G01X152028924Y-96941827D01*
G01X151883870Y-96957149D01*
G01X151738140Y-96970165D01*
G01X151591753Y-96980856D01*
G01X151444726Y-96989204D01*
G01X151297080Y-96995189D01*
G01X151148831Y-96998794D01*
G01X151000000Y-97000000D01*
G01X151000000Y-97000000D01*
G01X80000000Y-97000000D01*
G01X9000000Y-97000000D01*
G01X9000000Y-97000000D01*
G01X8851169Y-96998794D01*
G01X8702920Y-96995189D01*
G01X8555274Y-96989204D01*
G01X8408247Y-96980856D01*
G01X8261860Y-96970165D01*
G01X8116130Y-96957149D01*
G01X7971076Y-96941827D01*
G01X7826716Y-96924216D01*
G01X7683069Y-96904336D01*
G01X7540153Y-96882205D01*
G01X7397988Y-96857842D01*
G01X7256591Y-96831265D01*
G01X7115981Y-96802493D01*
G01X6976176Y-96771543D01*
G01X6837196Y-96738436D01*
G01X6699058Y-96703189D01*
G01X6561781Y-96665821D01*
G01X6425384Y-96626350D01*
G01X6289886Y-96584795D01*
G01X6155304Y-96541174D01*
G01X6021657Y-96495506D01*
G01X5888964Y-96447810D01*
G01X5757244Y-96398104D01*
G01X5626514Y-96346406D01*
G01X5496794Y-96292735D01*
G01X5368101Y-96237110D01*
G01X5240455Y-96179549D01*
G01X5113875Y-96120071D01*
G01X4988377Y-96058694D01*
G01X4863982Y-95995436D01*
G01X4740707Y-95930317D01*
G01X4618571Y-95863355D01*
G01X4497593Y-95794568D01*
G01X4377791Y-95723974D01*
G01X4259184Y-95651593D01*
G01X4141790Y-95577443D01*
G01X4025628Y-95501542D01*
G01X3910716Y-95423910D01*
G01X3797073Y-95344563D01*
G01X3684717Y-95263522D01*
G01X3573667Y-95180804D01*
G01X3463941Y-95096429D01*
G01X3355559Y-95010414D01*
G01X3248538Y-94922778D01*
G01X3142896Y-94833539D01*
G01X3038654Y-94742717D01*
G01X2935828Y-94650330D01*
G01X2834438Y-94556396D01*
G01X2734502Y-94460933D01*
G01X2636039Y-94363961D01*
G01X2539067Y-94265498D01*
G01X2443604Y-94165562D01*
G01X2349670Y-94064172D01*
G01X2257283Y-93961346D01*
G01X2166461Y-93857104D01*
G01X2077222Y-93751462D01*
G01X1989586Y-93644441D01*
G01X1903571Y-93536059D01*
G01X1819196Y-93426333D01*
G01X1736478Y-93315283D01*
G01X1655437Y-93202927D01*
G01X1576090Y-93089284D01*
G01X1498458Y-92974372D01*
G01X1422557Y-92858210D01*
G01X1348407Y-92740816D01*
G01X1276026Y-92622209D01*
G01X1205432Y-92502407D01*
G01X1136645Y-92381429D01*
G01X1069683Y-92259293D01*
G01X1004564Y-92136018D01*
G01X0941306Y-92011623D01*
G01X0879929Y-91886125D01*
G01X0820451Y-91759545D01*
G01X0762890Y-91631899D01*
G01X0707265Y-91503206D01*
G01X0653594Y-91373486D01*
G01X0601896Y-91242756D01*
G01X0552190Y-91111036D01*
G01X0504494Y-90978343D01*
G01X0458826Y-90844696D01*
G01X0415205Y-90710114D01*
G01X0373650Y-90574616D01*
G01X0334179Y-90438219D01*
G01X0296811Y-90300942D01*
G01X0261564Y-90162804D01*
G01X0228457Y-90023824D01*
G01X0197507Y-89884019D01*
G01X0168735Y-89743409D01*
G01X0142158Y-89602012D01*
G01X0117795Y-89459847D01*
G01X0095664Y-89316931D01*
G01X0075784Y-89173284D01*
G01X0058173Y-89028924D01*
G01X0042851Y-88883870D01*
G01X0029835Y-88738140D01*
G01X0019144Y-88591752D01*
G01X0010796Y-88444726D01*
G01X0004811Y-88297080D01*
G01X0001206Y-88148831D01*
G01X0000000Y-88000000D01*
G01X0000000Y-88000000D01*
G01X0000000Y-48500000D01*
D20*
G01X16899999Y-21549999D02*
G01X18899999Y-21549999D01*
G01X18899999Y-23649999D01*
G01X16899999Y-23649999D01*
G01X16899999Y-21549999D01*
D20*
G01X2099999Y-21549999D02*
G01X4099999Y-21549999D01*
G01X4099999Y-23649999D01*
G01X2099999Y-23649999D01*
G01X2099999Y-21549999D01*
D20*
G01X155900000Y-21549999D02*
G01X157900000Y-21549999D01*
G01X157900000Y-23649999D01*
G01X155900000Y-23649999D01*
G01X155900000Y-21549999D01*
D20*
G01X141100000Y-21549999D02*
G01X143100000Y-21549999D01*
G01X143100000Y-23649999D01*
G01X141100000Y-23649999D01*
G01X141100000Y-21549999D01*
D20*
G01X61000001Y-71000001D02*
G01X40999998Y-71000001D01*
G01X40999998Y-85999999D01*
G01X61000001Y-85999999D01*
G01X61000001Y-71000001D01*
D20*
G01X119000000Y-71000001D02*
G01X99000001Y-71000001D01*
G01X99000001Y-85999999D01*
G01X119000000Y-85999999D01*
G01X119000000Y-71000001D01*
D20*
G01X80000000Y-30500000D02*
G01X80000000Y-30500000D01*
G01X79801558Y-30498392D01*
G01X79603894Y-30493586D01*
G01X79407032Y-30485605D01*
G01X79210997Y-30474475D01*
G01X79015814Y-30460220D01*
G01X78821507Y-30442866D01*
G01X78628101Y-30422435D01*
G01X78435621Y-30398955D01*
G01X78244092Y-30372448D01*
G01X78053538Y-30342940D01*
G01X77863984Y-30310456D01*
G01X77675455Y-30275020D01*
G01X77487974Y-30236657D01*
G01X77301569Y-30195391D01*
G01X77116261Y-30151248D01*
G01X76932078Y-30104252D01*
G01X76749042Y-30054427D01*
G01X76567180Y-30001800D01*
G01X76386515Y-29946393D01*
G01X76207072Y-29888232D01*
G01X76028877Y-29827342D01*
G01X75851953Y-29763747D01*
G01X75676326Y-29697472D01*
G01X75502019Y-29628541D01*
G01X75329059Y-29556980D01*
G01X75157469Y-29482814D01*
G01X74987275Y-29406066D01*
G01X74818500Y-29326761D01*
G01X74651170Y-29244925D01*
G01X74485310Y-29160582D01*
G01X74320943Y-29073756D01*
G01X74158096Y-28984473D01*
G01X73996792Y-28892756D01*
G01X73837056Y-28798632D01*
G01X73678913Y-28702124D01*
G01X73522388Y-28603257D01*
G01X73367505Y-28502056D01*
G01X73214289Y-28398546D01*
G01X73062764Y-28292751D01*
G01X72912957Y-28184696D01*
G01X72764890Y-28074405D01*
G01X72618589Y-27961904D01*
G01X72474079Y-27847218D01*
G01X72331384Y-27730370D01*
G01X72190529Y-27611385D01*
G01X72051539Y-27490289D01*
G01X71914438Y-27367106D01*
G01X71779252Y-27241860D01*
G01X71646004Y-27114577D01*
G01X71514719Y-26985281D01*
G01X71385423Y-26853996D01*
G01X71258140Y-26720749D01*
G01X71132895Y-26585562D01*
G01X71009711Y-26448461D01*
G01X70888615Y-26309471D01*
G01X70769631Y-26168616D01*
G01X70652783Y-26025921D01*
G01X70538096Y-25881411D01*
G01X70425595Y-25735110D01*
G01X70315305Y-25587044D01*
G01X70207250Y-25437236D01*
G01X70101455Y-25285711D01*
G01X69997944Y-25132496D01*
G01X69896744Y-24977612D01*
G01X69797877Y-24821087D01*
G01X69701369Y-24662944D01*
G01X69607244Y-24503208D01*
G01X69515528Y-24341904D01*
G01X69426245Y-24179057D01*
G01X69339419Y-24014690D01*
G01X69255076Y-23848830D01*
G01X69173240Y-23681500D01*
G01X69093935Y-23512725D01*
G01X69017187Y-23342531D01*
G01X68943020Y-23170941D01*
G01X68871460Y-22997980D01*
G01X68802529Y-22823674D01*
G01X68736254Y-22648047D01*
G01X68672659Y-22471123D01*
G01X68611769Y-22292927D01*
G01X68553608Y-22113485D01*
G01X68498201Y-21932820D01*
G01X68445573Y-21750957D01*
G01X68395749Y-21567922D01*
G01X68348753Y-21383738D01*
G01X68304610Y-21198431D01*
G01X68263344Y-21012025D01*
G01X68224981Y-20824545D01*
G01X68189545Y-20636015D01*
G01X68157061Y-20446461D01*
G01X68127553Y-20255907D01*
G01X68101046Y-20064378D01*
G01X68077566Y-19871898D01*
G01X68057135Y-19678492D01*
G01X68039781Y-19484186D01*
G01X68025526Y-19289002D01*
G01X68014396Y-19092967D01*
G01X68006415Y-18896105D01*
G01X68001609Y-18698441D01*
G01X68000001Y-18499999D01*
G01X68000001Y-18499999D01*
G01X68000001Y-18499999D01*
G01X68001609Y-18301557D01*
G01X68006415Y-18103893D01*
G01X68014396Y-17907031D01*
G01X68025526Y-17710996D01*
G01X68039781Y-17515812D01*
G01X68057135Y-17321506D01*
G01X68077566Y-17128100D01*
G01X68101046Y-16935620D01*
G01X68127553Y-16744091D01*
G01X68157061Y-16553537D01*
G01X68189545Y-16363983D01*
G01X68224981Y-16175453D01*
G01X68263344Y-15987973D01*
G01X68304610Y-15801567D01*
G01X68348753Y-15616260D01*
G01X68395749Y-15432076D01*
G01X68445573Y-15249041D01*
G01X68498201Y-15067178D01*
G01X68553608Y-14886513D01*
G01X68611769Y-14707071D01*
G01X68672659Y-14528875D01*
G01X68736254Y-14351951D01*
G01X68802529Y-14176324D01*
G01X68871460Y-14002018D01*
G01X68943020Y-13829057D01*
G01X69017187Y-13657468D01*
G01X69093935Y-13487273D01*
G01X69173240Y-13318499D01*
G01X69255076Y-13151169D01*
G01X69339419Y-12985308D01*
G01X69426245Y-12820942D01*
G01X69515528Y-12658094D01*
G01X69607244Y-12496790D01*
G01X69701369Y-12337054D01*
G01X69797877Y-12178911D01*
G01X69896744Y-12022386D01*
G01X69997944Y-11867503D01*
G01X70101455Y-11714287D01*
G01X70207250Y-11562763D01*
G01X70315305Y-11412955D01*
G01X70425595Y-11264888D01*
G01X70538096Y-11118588D01*
G01X70652783Y-10974077D01*
G01X70769631Y-10831382D01*
G01X70888615Y-10690528D01*
G01X71009711Y-10551537D01*
G01X71132895Y-10414437D01*
G01X71258140Y-10279250D01*
G01X71385423Y-10146002D01*
G01X71514719Y-10014718D01*
G01X71646004Y-9885421D01*
G01X71779252Y-9758138D01*
G01X71914438Y-9632893D01*
G01X72051539Y-9509709D01*
G01X72190529Y-9388613D01*
G01X72331384Y-9269629D01*
G01X72474079Y-9152781D01*
G01X72618589Y-9038094D01*
G01X72764890Y-8925593D01*
G01X72912957Y-8815303D01*
G01X73062764Y-8707248D01*
G01X73214289Y-8601453D01*
G01X73367505Y-8497943D01*
G01X73522388Y-8396742D01*
G01X73678913Y-8297875D01*
G01X73837056Y-8201367D01*
G01X73996792Y-8107242D01*
G01X74158096Y-8015526D01*
G01X74320943Y-7926243D01*
G01X74485310Y-7839417D01*
G01X74651170Y-7755074D01*
G01X74818500Y-7673238D01*
G01X74987275Y-7593933D01*
G01X75157469Y-7517185D01*
G01X75329059Y-7443018D01*
G01X75502019Y-7371458D01*
G01X75676326Y-7302527D01*
G01X75851953Y-7236252D01*
G01X76028877Y-7172657D01*
G01X76207072Y-7111767D01*
G01X76386515Y-7053606D01*
G01X76567180Y-6998199D01*
G01X76749042Y-6945571D01*
G01X76932078Y-6895747D01*
G01X77116261Y-6848751D01*
G01X77301569Y-6804608D01*
G01X77487974Y-6763342D01*
G01X77675455Y-6724979D01*
G01X77863984Y-6689543D01*
G01X78053538Y-6657059D01*
G01X78244092Y-6627551D01*
G01X78435621Y-6601044D01*
G01X78628101Y-6577564D01*
G01X78821507Y-6557133D01*
G01X79015814Y-6539779D01*
G01X79210997Y-6525524D01*
G01X79407032Y-6514394D01*
G01X79603894Y-6506413D01*
G01X79801558Y-6501607D01*
G01X80000000Y-6499999D01*
G01X80000000Y-6499999D01*
G01X80000000Y-6499999D01*
G01X80198442Y-6501607D01*
G01X80396106Y-6506413D01*
G01X80592968Y-6514394D01*
G01X80789003Y-6525524D01*
G01X80984186Y-6539779D01*
G01X81178493Y-6557133D01*
G01X81371899Y-6577564D01*
G01X81564379Y-6601044D01*
G01X81755908Y-6627551D01*
G01X81946462Y-6657059D01*
G01X82136016Y-6689543D01*
G01X82324546Y-6724979D01*
G01X82512026Y-6763342D01*
G01X82698432Y-6804608D01*
G01X82883739Y-6848751D01*
G01X83067922Y-6895747D01*
G01X83250958Y-6945571D01*
G01X83432820Y-6998199D01*
G01X83613485Y-7053606D01*
G01X83792928Y-7111767D01*
G01X83971123Y-7172657D01*
G01X84148047Y-7236252D01*
G01X84323675Y-7302527D01*
G01X84497981Y-7371458D01*
G01X84670941Y-7443018D01*
G01X84842531Y-7517185D01*
G01X85012726Y-7593933D01*
G01X85181500Y-7673238D01*
G01X85348830Y-7755074D01*
G01X85514691Y-7839417D01*
G01X85679057Y-7926243D01*
G01X85841905Y-8015526D01*
G01X86003209Y-8107242D01*
G01X86162945Y-8201367D01*
G01X86321088Y-8297875D01*
G01X86477613Y-8396742D01*
G01X86632496Y-8497943D01*
G01X86785712Y-8601453D01*
G01X86937236Y-8707248D01*
G01X87087044Y-8815303D01*
G01X87235111Y-8925593D01*
G01X87381411Y-9038094D01*
G01X87525922Y-9152781D01*
G01X87668617Y-9269629D01*
G01X87809471Y-9388613D01*
G01X87948462Y-9509709D01*
G01X88085562Y-9632893D01*
G01X88220749Y-9758138D01*
G01X88353997Y-9885421D01*
G01X88485281Y-10014718D01*
G01X88614578Y-10146002D01*
G01X88741861Y-10279250D01*
G01X88867106Y-10414437D01*
G01X88990290Y-10551537D01*
G01X89111386Y-10690528D01*
G01X89230370Y-10831382D01*
G01X89347218Y-10974077D01*
G01X89461905Y-11118588D01*
G01X89574406Y-11264888D01*
G01X89684696Y-11412955D01*
G01X89792752Y-11562763D01*
G01X89898547Y-11714287D01*
G01X90002057Y-11867503D01*
G01X90103258Y-12022386D01*
G01X90202125Y-12178911D01*
G01X90298633Y-12337054D01*
G01X90392757Y-12496790D01*
G01X90484473Y-12658094D01*
G01X90573757Y-12820942D01*
G01X90660582Y-12985308D01*
G01X90744926Y-13151169D01*
G01X90826762Y-13318499D01*
G01X90906066Y-13487273D01*
G01X90982814Y-13657468D01*
G01X91056981Y-13829057D01*
G01X91128542Y-14002018D01*
G01X91197472Y-14176324D01*
G01X91263747Y-14351951D01*
G01X91327343Y-14528875D01*
G01X91388233Y-14707071D01*
G01X91446394Y-14886513D01*
G01X91501800Y-15067178D01*
G01X91554428Y-15249041D01*
G01X91604253Y-15432076D01*
G01X91651249Y-15616260D01*
G01X91695392Y-15801567D01*
G01X91736658Y-15987973D01*
G01X91775021Y-16175453D01*
G01X91810457Y-16363983D01*
G01X91842941Y-16553537D01*
G01X91872449Y-16744091D01*
G01X91898956Y-16935620D01*
G01X91922436Y-17128100D01*
G01X91942867Y-17321506D01*
G01X91960221Y-17515812D01*
G01X91974476Y-17710996D01*
G01X91985606Y-17907031D01*
G01X91993587Y-18103893D01*
G01X91998393Y-18301557D01*
G01X92000001Y-18499999D01*
G01X92000001Y-18499999D01*
G01X92000001Y-18499999D01*
G01X91998393Y-18698441D01*
G01X91993587Y-18896105D01*
G01X91985606Y-19092967D01*
G01X91974476Y-19289002D01*
G01X91960221Y-19484186D01*
G01X91942867Y-19678492D01*
G01X91922436Y-19871898D01*
G01X91898956Y-20064378D01*
G01X91872449Y-20255907D01*
G01X91842941Y-20446461D01*
G01X91810457Y-20636015D01*
G01X91775021Y-20824545D01*
G01X91736658Y-21012025D01*
G01X91695392Y-21198431D01*
G01X91651249Y-21383738D01*
G01X91604253Y-21567922D01*
G01X91554428Y-21750957D01*
G01X91501800Y-21932820D01*
G01X91446394Y-22113485D01*
G01X91388233Y-22292927D01*
G01X91327343Y-22471123D01*
G01X91263747Y-22648047D01*
G01X91197472Y-22823674D01*
G01X91128542Y-22997980D01*
G01X91056981Y-23170941D01*
G01X90982814Y-23342531D01*
G01X90906066Y-23512725D01*
G01X90826762Y-23681500D01*
G01X90744926Y-23848830D01*
G01X90660582Y-24014690D01*
G01X90573757Y-24179057D01*
G01X90484473Y-24341904D01*
G01X90392757Y-24503208D01*
G01X90298633Y-24662944D01*
G01X90202125Y-24821087D01*
G01X90103258Y-24977612D01*
G01X90002057Y-25132496D01*
G01X89898547Y-25285711D01*
G01X89792752Y-25437236D01*
G01X89684696Y-25587044D01*
G01X89574406Y-25735110D01*
G01X89461905Y-25881411D01*
G01X89347218Y-26025921D01*
G01X89230370Y-26168616D01*
G01X89111386Y-26309471D01*
G01X88990290Y-26448461D01*
G01X88867106Y-26585562D01*
G01X88741861Y-26720749D01*
G01X88614578Y-26853996D01*
G01X88485281Y-26985281D01*
G01X88353997Y-27114577D01*
G01X88220749Y-27241860D01*
G01X88085562Y-27367106D01*
G01X87948462Y-27490289D01*
G01X87809471Y-27611385D01*
G01X87668617Y-27730370D01*
G01X87525922Y-27847218D01*
G01X87381411Y-27961904D01*
G01X87235111Y-28074405D01*
G01X87087044Y-28184696D01*
G01X86937236Y-28292751D01*
G01X86785712Y-28398546D01*
G01X86632496Y-28502056D01*
G01X86477613Y-28603257D01*
G01X86321088Y-28702124D01*
G01X86162945Y-28798632D01*
G01X86003209Y-28892756D01*
G01X85841905Y-28984473D01*
G01X85679057Y-29073756D01*
G01X85514691Y-29160582D01*
G01X85348830Y-29244925D01*
G01X85181500Y-29326761D01*
G01X85012726Y-29406066D01*
G01X84842531Y-29482814D01*
G01X84670941Y-29556980D01*
G01X84497981Y-29628541D01*
G01X84323675Y-29697472D01*
G01X84148047Y-29763747D01*
G01X83971123Y-29827342D01*
G01X83792928Y-29888232D01*
G01X83613485Y-29946393D01*
G01X83432820Y-30001800D01*
G01X83250958Y-30054427D01*
G01X83067922Y-30104252D01*
G01X82883739Y-30151248D01*
G01X82698432Y-30195391D01*
G01X82512026Y-30236657D01*
G01X82324546Y-30275020D01*
G01X82136016Y-30310456D01*
G01X81946462Y-30342940D01*
G01X81755908Y-30372448D01*
G01X81564379Y-30398955D01*
G01X81371899Y-30422435D01*
G01X81178493Y-30442866D01*
G01X80984186Y-30460220D01*
G01X80789003Y-30474475D01*
G01X80592968Y-30485605D01*
G01X80396106Y-30493586D01*
G01X80198442Y-30498392D01*
G01X80000000Y-30500000D01*
G01X80000000Y-30500000D01*
D20*
G01X75500000Y-40999998D02*
G01X55500000Y-40999998D01*
G01X55500000Y-55999999D01*
G01X75500000Y-55999999D01*
G01X75500000Y-40999998D01*
D20*
G01X104500000Y-40999998D02*
G01X84499999Y-40999998D01*
G01X84499999Y-55999999D01*
G01X104500000Y-55999999D01*
G01X104500000Y-40999998D01*
D20*
G01X46499999Y-40999998D02*
G01X26499999Y-40999998D01*
G01X26499999Y-55999999D01*
G01X46499999Y-55999999D01*
G01X46499999Y-40999998D01*
D20*
G01X133500000Y-40999998D02*
G01X113500000Y-40999998D01*
G01X113500000Y-55999999D01*
G01X133500000Y-55999999D01*
G01X133500000Y-40999998D01*
G04 end of program *
M02*
