G04                                                      *
G04 Greetings!                                           *
G04 This Gerber was generated by PCBmodE, an open source *
G04 PCB design software. Get it here:                    *
G04                                                      *
G04   http://pcbmode.com                                 *
G04                                                      *
G04 Also visit                                           *
G04                                                      *
G04   http://boldport.com                                *
G04                                                      *
G04 and follow @boldport / @pcbmode for updates!         *
G04                                                      *

G04 leading zeros omitted (L); absolute data (A); 6 integer digits and 6 fractional digits *
%FSLAX66Y66*%

G04 mode (MO): millimeters (MM) *
%MOMM*%

G04 Aperture definitions *
%ADD10C,0.001X*%
%ADD11C,0.001X*%

%LPD*%
G36*
G01X161305664Y-82698145D02*
G01X161305664Y-82698145D01*
G01X161324424Y-82637101D01*
G01X161331299Y-82627100D01*
G01X161331299Y-82627100D01*
G01X161376601Y-82583967D01*
G01X161381103Y-82580957D01*
G01X161381103Y-82580957D01*
G01X161436105Y-82550654D01*
G01X161459473Y-82538477D01*
G01X161459473Y-82538477D01*
G01X161497757Y-82594437D01*
G01X161545343Y-82641398D01*
G01X161593873Y-82678335D01*
G01X161634995Y-82704223D01*
G01X161660351Y-82718038D01*
G01X161664551Y-82720118D01*
G01X161664551Y-82720118D01*
G01X161739728Y-82750226D01*
G01X161811215Y-82770216D01*
G01X161874305Y-82782158D01*
G01X161924291Y-82788126D01*
G01X161956465Y-82790193D01*
G01X161966309Y-82790430D01*
G01X161966309Y-82790430D01*
G01X162047622Y-82783448D01*
G01X162118353Y-82766073D01*
G01X162176430Y-82743658D01*
G01X162219779Y-82721558D01*
G01X162246329Y-82705127D01*
G01X162254150Y-82699610D01*
G01X162254150Y-82699610D01*
G01X162305272Y-82647544D01*
G01X162339212Y-82588935D01*
G01X162359490Y-82531211D01*
G01X162369623Y-82481797D01*
G01X162373132Y-82448121D01*
G01X162373535Y-82437403D01*
G01X162373535Y-82437403D01*
G01X162362490Y-82360170D01*
G01X162336152Y-82298020D01*
G01X162304717Y-82252147D01*
G01X162278379Y-82223747D01*
G01X162267334Y-82214014D01*
G01X162267334Y-82214014D01*
G01X162267334Y-82214014D01*
G01X162206720Y-82173313D01*
G01X162144173Y-82140610D01*
G01X162086587Y-82115933D01*
G01X162040855Y-82099305D01*
G01X162013873Y-82090754D01*
G01X162009521Y-82089502D01*
G01X162009521Y-82089502D01*
G01X161937369Y-82068981D01*
G01X161868943Y-82048491D01*
G01X161807968Y-82029527D01*
G01X161758172Y-82013582D01*
G01X161723279Y-82002151D01*
G01X161707017Y-81996727D01*
G01X161706299Y-81996485D01*
G01X161706299Y-81996485D01*
G01X161637262Y-81967261D01*
G01X161576694Y-81931954D01*
G01X161526089Y-81895279D01*
G01X161486941Y-81861951D01*
G01X161460744Y-81836688D01*
G01X161448992Y-81824205D01*
G01X161448486Y-81823633D01*
G01X161448486Y-81823633D01*
G01X161407506Y-81764526D01*
G01X161378712Y-81700406D01*
G01X161359954Y-81636939D01*
G01X161349082Y-81579790D01*
G01X161343944Y-81534624D01*
G01X161342391Y-81507108D01*
G01X161342285Y-81501368D01*
G01X161342285Y-81501368D01*
G01X161348395Y-81415167D01*
G01X161364791Y-81338423D01*
G01X161388572Y-81271290D01*
G01X161416836Y-81213918D01*
G01X161446683Y-81166459D01*
G01X161475211Y-81129067D01*
G01X161499519Y-81101892D01*
G01X161516707Y-81085087D01*
G01X161523872Y-81078804D01*
G01X161523926Y-81078760D01*
G01X161523926Y-81078760D01*
G01X161586976Y-81035327D01*
G01X161654216Y-81001405D01*
G01X161722605Y-80975821D01*
G01X161789101Y-80957397D01*
G01X161850663Y-80944959D01*
G01X161904248Y-80937330D01*
G01X161946816Y-80933335D01*
G01X161975324Y-80931798D01*
G01X161986732Y-80931544D01*
G01X161986816Y-80931543D01*
G01X161986816Y-80931543D01*
G01X162065490Y-80934867D01*
G01X162139133Y-80943577D01*
G01X162205833Y-80955780D01*
G01X162263679Y-80969584D01*
G01X162310759Y-80983098D01*
G01X162345161Y-80994427D01*
G01X162364975Y-81001681D01*
G01X162369141Y-81003321D01*
G01X162369141Y-81003321D01*
G01X162448002Y-81046298D01*
G01X162498842Y-81093507D01*
G01X162527812Y-81138642D01*
G01X162541063Y-81175400D01*
G01X162544746Y-81197476D01*
G01X162544922Y-81201075D01*
G01X162544922Y-81201075D01*
G01X162525422Y-81265303D01*
G01X162479619Y-81308918D01*
G01X162426561Y-81335340D01*
G01X162385294Y-81347987D01*
G01X162373535Y-81350489D01*
G01X162373535Y-81350489D01*
G01X162332543Y-81292741D01*
G01X162282036Y-81246035D01*
G01X162233816Y-81211919D01*
G01X162199685Y-81191938D01*
G01X162190430Y-81187159D01*
G01X162190430Y-81187159D01*
G01X162119255Y-81158572D01*
G01X162051601Y-81140142D01*
G01X161992694Y-81129640D01*
G01X161947764Y-81124837D01*
G01X161922038Y-81123502D01*
G01X161917969Y-81123438D01*
G01X161917969Y-81123438D01*
G01X161836750Y-81131335D01*
G01X161768292Y-81150445D01*
G01X161714886Y-81173896D01*
G01X161678823Y-81194814D01*
G01X161662394Y-81206329D01*
G01X161661621Y-81206934D01*
G01X161661621Y-81206934D01*
G01X161612889Y-81261436D01*
G01X161582404Y-81323124D01*
G01X161565886Y-81382052D01*
G01X161559055Y-81428272D01*
G01X161557630Y-81451839D01*
G01X161557617Y-81453028D01*
G01X161557617Y-81453028D01*
G01X161567950Y-81530627D01*
G01X161591465Y-81591836D01*
G01X161616932Y-81633984D01*
G01X161633124Y-81654395D01*
G01X161634521Y-81655909D01*
G01X161634521Y-81655909D01*
G01X161691570Y-81703528D01*
G01X161749282Y-81737033D01*
G01X161796695Y-81757655D01*
G01X161822848Y-81766623D01*
G01X161824951Y-81767237D01*
G01X161824951Y-81767237D01*
G01X161894443Y-81787252D01*
G01X161961650Y-81807655D01*
G01X162019014Y-81825666D01*
G01X162058975Y-81838510D01*
G01X162073975Y-81843409D01*
G01X162073975Y-81843409D01*
G01X162073975Y-81843409D01*
G01X162148201Y-81868915D01*
G01X162213900Y-81893074D01*
G01X162267305Y-81913747D01*
G01X162304646Y-81928792D01*
G01X162322158Y-81936070D01*
G01X162322998Y-81936426D01*
G01X162322998Y-81936426D01*
G01X162386396Y-81972127D01*
G01X162439072Y-82015317D01*
G01X162479092Y-82057135D01*
G01X162504521Y-82088723D01*
G01X162513428Y-82101221D01*
G01X162513428Y-82101221D01*
G01X162513428Y-82101221D01*
G01X162546359Y-82164489D01*
G01X162568222Y-82230946D01*
G01X162581284Y-82293748D01*
G01X162587812Y-82346051D01*
G01X162590072Y-82381010D01*
G01X162590332Y-82391993D01*
G01X162590332Y-82391993D01*
G01X162585195Y-82471802D01*
G01X162572585Y-82541622D01*
G01X162556707Y-82598583D01*
G01X162541762Y-82639812D01*
G01X162531955Y-82662441D01*
G01X162530273Y-82665918D01*
G01X162530273Y-82665918D01*
G01X162488243Y-82733571D01*
G01X162443142Y-82786537D01*
G01X162402949Y-82824084D01*
G01X162375639Y-82845480D01*
G01X162368408Y-82850489D01*
G01X162368408Y-82850489D01*
G01X162303296Y-82887490D01*
G01X162241256Y-82915545D01*
G01X162189816Y-82934818D01*
G01X162156507Y-82945470D01*
G01X162147949Y-82947901D01*
G01X162147949Y-82947901D01*
G01X162076336Y-82963270D01*
G01X162008520Y-82972592D01*
G01X161951461Y-82977379D01*
G01X161912121Y-82979143D01*
G01X161897461Y-82979395D01*
G01X161897461Y-82979395D01*
G01X161897461Y-82979395D01*
G01X161815703Y-82976135D01*
G01X161740031Y-82967488D01*
G01X161671719Y-82955156D01*
G01X161612044Y-82940839D01*
G01X161562281Y-82926239D01*
G01X161523707Y-82913056D01*
G01X161497596Y-82902992D01*
G01X161485225Y-82897747D01*
G01X161484375Y-82897364D01*
G01X161484375Y-82897364D01*
G01X161404200Y-82850538D01*
G01X161352512Y-82802209D01*
G01X161323059Y-82757707D01*
G01X161309587Y-82722363D01*
G01X161305843Y-82701508D01*
G01X161305664Y-82698145D01*
G37*
G36*
G01X162921387Y-82790430D02*
G01X162921387Y-82790430D01*
G01X162927488Y-82746239D01*
G01X162933063Y-82696003D01*
G01X162938135Y-82640622D01*
G01X162942726Y-82580993D01*
G01X162946861Y-82518015D01*
G01X162950562Y-82452587D01*
G01X162953852Y-82385609D01*
G01X162956754Y-82317977D01*
G01X162959291Y-82250592D01*
G01X162961487Y-82184351D01*
G01X162963364Y-82120154D01*
G01X162964945Y-82058899D01*
G01X162966254Y-82001485D01*
G01X162967314Y-81948810D01*
G01X162968147Y-81901774D01*
G01X162968777Y-81861274D01*
G01X162969227Y-81828210D01*
G01X162969520Y-81803480D01*
G01X162969679Y-81787983D01*
G01X162969727Y-81782618D01*
G01X162969727Y-81782618D01*
G01X162969727Y-81782618D01*
G01X162969172Y-81675935D01*
G01X162967618Y-81576220D01*
G01X162965226Y-81483593D01*
G01X162962161Y-81398177D01*
G01X162958583Y-81320090D01*
G01X162954657Y-81249453D01*
G01X162950544Y-81186388D01*
G01X162946409Y-81131014D01*
G01X162942412Y-81083452D01*
G01X162938719Y-81043824D01*
G01X162935490Y-81012248D01*
G01X162932889Y-80988847D01*
G01X162931079Y-80973741D01*
G01X162930223Y-80967049D01*
G01X162930176Y-80966700D01*
G01X162930176Y-80966700D01*
G01X162996004Y-80955501D01*
G01X163066485Y-80946976D01*
G01X163137791Y-80940759D01*
G01X163206095Y-80936487D01*
G01X163267570Y-80933793D01*
G01X163318388Y-80932315D01*
G01X163354723Y-80931687D01*
G01X163372746Y-80931546D01*
G01X163374023Y-80931543D01*
G01X163395996Y-80931543D01*
G01X163395996Y-80931543D01*
G01X163478016Y-80933552D01*
G01X163554383Y-80938879D01*
G01X163623686Y-80946477D01*
G01X163684511Y-80955297D01*
G01X163735447Y-80964291D01*
G01X163775081Y-80972413D01*
G01X163802001Y-80978613D01*
G01X163814793Y-80981844D01*
G01X163815674Y-80982081D01*
G01X163815674Y-80982081D01*
G01X163891352Y-81006486D01*
G01X163961376Y-81035332D01*
G01X164023706Y-81065734D01*
G01X164076304Y-81094812D01*
G01X164117133Y-81119683D01*
G01X164144156Y-81137465D01*
G01X164155333Y-81145277D01*
G01X164155518Y-81145411D01*
G01X164155518Y-81145411D01*
G01X164212261Y-81193358D01*
G01X164261801Y-81246633D01*
G01X164303916Y-81301354D01*
G01X164338384Y-81353641D01*
G01X164364982Y-81399613D01*
G01X164383489Y-81435387D01*
G01X164393682Y-81457084D01*
G01X164395752Y-81461817D01*
G01X164395752Y-81461817D01*
G01X164421034Y-81531498D01*
G01X164440779Y-81604198D01*
G01X164455672Y-81676980D01*
G01X164466396Y-81746910D01*
G01X164473636Y-81811050D01*
G01X164478077Y-81866464D01*
G01X164480403Y-81910216D01*
G01X164481297Y-81939370D01*
G01X164481445Y-81950989D01*
G01X164481445Y-81951075D01*
G01X164481445Y-81951075D01*
G01X164478079Y-82043111D01*
G01X164468638Y-82130166D01*
G01X164454112Y-82211975D01*
G01X164435489Y-82288273D01*
G01X164413759Y-82358793D01*
G01X164389910Y-82423271D01*
G01X164364931Y-82481442D01*
G01X164339811Y-82533040D01*
G01X164315538Y-82577800D01*
G01X164293102Y-82615456D01*
G01X164273490Y-82645744D01*
G01X164257693Y-82668398D01*
G01X164246698Y-82683152D01*
G01X164241495Y-82689742D01*
G01X164241211Y-82690088D01*
G01X164241211Y-82690088D01*
G01X164187991Y-82746689D01*
G01X164130117Y-82795380D01*
G01X164068921Y-82836756D01*
G01X164005737Y-82871412D01*
G01X163941897Y-82899944D01*
G01X163878733Y-82922948D01*
G01X163817577Y-82941018D01*
G01X163759762Y-82954751D01*
G01X163706621Y-82964741D01*
G01X163659486Y-82971584D01*
G01X163619690Y-82975875D01*
G01X163588564Y-82978210D01*
G01X163567442Y-82979184D01*
G01X163557656Y-82979393D01*
G01X163557129Y-82979395D01*
G01X163557129Y-82979395D01*
G01X163462851Y-82975960D01*
G01X163375589Y-82966431D01*
G01X163295495Y-82951966D01*
G01X163222723Y-82933729D01*
G01X163157426Y-82912879D01*
G01X163099756Y-82890579D01*
G01X163049866Y-82867987D01*
G01X163007910Y-82846267D01*
G01X162974040Y-82826578D01*
G01X162948410Y-82810082D01*
G01X162931172Y-82797940D01*
G01X162922480Y-82791313D01*
G01X162921387Y-82790430D01*
G37*
%LPC*%
G36*
G01X163152832Y-82689356D02*
G01X163152832Y-82689356D01*
G01X163213997Y-82723884D01*
G01X163278286Y-82750170D01*
G01X163342493Y-82769338D01*
G01X163403416Y-82782513D01*
G01X163457848Y-82790817D01*
G01X163502585Y-82795375D01*
G01X163534423Y-82797310D01*
G01X163550157Y-82797747D01*
G01X163551269Y-82797754D01*
G01X163551269Y-82797754D01*
G01X163632596Y-82793349D01*
G01X163705320Y-82782092D01*
G01X163767662Y-82766920D01*
G01X163817842Y-82750768D01*
G01X163854080Y-82736574D01*
G01X163874597Y-82727275D01*
G01X163878662Y-82725245D01*
G01X163878662Y-82725245D01*
G01X163947030Y-82682315D01*
G01X164002444Y-82635817D01*
G01X164044622Y-82591722D01*
G01X164073282Y-82556003D01*
G01X164088143Y-82534630D01*
G01X164090332Y-82531153D01*
G01X164090332Y-82531153D01*
G01X164127768Y-82461992D01*
G01X164156779Y-82396852D01*
G01X164177668Y-82341338D01*
G01X164190737Y-82301056D01*
G01X164196285Y-82281614D01*
G01X164196533Y-82280665D01*
G01X164196533Y-82280665D01*
G01X164211976Y-82206964D01*
G01X164221637Y-82136994D01*
G01X164226872Y-82077026D01*
G01X164229037Y-82033327D01*
G01X164229488Y-82012169D01*
G01X164229492Y-82011133D01*
G01X164229492Y-82011133D01*
G01X164226382Y-81920573D01*
G01X164217661Y-81836544D01*
G01X164204242Y-81759051D01*
G01X164187039Y-81688101D01*
G01X164166965Y-81623700D01*
G01X164144934Y-81565853D01*
G01X164121859Y-81514567D01*
G01X164098653Y-81469848D01*
G01X164076230Y-81431701D01*
G01X164055504Y-81400134D01*
G01X164037387Y-81375151D01*
G01X164022794Y-81356759D01*
G01X164012637Y-81344964D01*
G01X164007831Y-81339772D01*
G01X164007568Y-81339502D01*
G01X164007568Y-81339502D01*
G01X163950972Y-81289740D01*
G01X163888939Y-81247920D01*
G01X163823316Y-81213354D01*
G01X163755950Y-81185350D01*
G01X163688689Y-81163217D01*
G01X163623380Y-81146265D01*
G01X163561870Y-81133803D01*
G01X163506007Y-81125140D01*
G01X163457637Y-81119585D01*
G01X163418607Y-81116448D01*
G01X163390766Y-81115037D01*
G01X163375961Y-81114663D01*
G01X163374023Y-81114649D01*
G01X163374023Y-81114649D01*
G01X163311157Y-81116750D01*
G01X163243991Y-81121210D01*
G01X163194496Y-81125259D01*
G01X163182129Y-81126368D01*
G01X163182129Y-81126368D01*
G01X163185636Y-81196814D01*
G01X163188468Y-81269925D01*
G01X163190696Y-81342833D01*
G01X163192391Y-81412674D01*
G01X163193622Y-81476580D01*
G01X163194459Y-81531686D01*
G01X163194973Y-81575125D01*
G01X163195234Y-81604032D01*
G01X163195312Y-81615541D01*
G01X163195312Y-81615625D01*
G01X163195312Y-81615625D01*
G01X163195004Y-81713638D01*
G01X163194123Y-81807650D01*
G01X163192732Y-81897552D01*
G01X163190894Y-81983231D01*
G01X163188675Y-82064577D01*
G01X163186137Y-82141479D01*
G01X163183344Y-82213827D01*
G01X163180359Y-82281508D01*
G01X163177248Y-82344413D01*
G01X163174072Y-82402430D01*
G01X163170897Y-82455448D01*
G01X163167785Y-82503356D01*
G01X163164801Y-82546043D01*
G01X163162008Y-82583399D01*
G01X163159470Y-82615313D01*
G01X163157250Y-82641672D01*
G01X163155413Y-82662367D01*
G01X163154021Y-82677287D01*
G01X163153140Y-82686320D01*
G01X163152832Y-82689356D01*
G01X163152832Y-82689356D01*
G37*
%LPD*%
G36*
G01X164567871Y-81063379D02*
G01X164567871Y-81063379D01*
G01X164641903Y-81006940D01*
G01X164703315Y-80973773D01*
G01X164749176Y-80957690D01*
G01X164776557Y-80952507D01*
G01X164783203Y-80952051D01*
G01X164783203Y-80952051D01*
G01X164845253Y-80972193D01*
G01X164891785Y-81016504D01*
G01X164921013Y-81060816D01*
G01X164931152Y-81080957D01*
G01X164931152Y-81080957D01*
G01X164931152Y-81080957D01*
G01X164956307Y-81140014D01*
G01X164982275Y-81204225D01*
G01X165008645Y-81272114D01*
G01X165035004Y-81342204D01*
G01X165060937Y-81413017D01*
G01X165086033Y-81483077D01*
G01X165109879Y-81550906D01*
G01X165132061Y-81615027D01*
G01X165152166Y-81673963D01*
G01X165169781Y-81726236D01*
G01X165184494Y-81770370D01*
G01X165195891Y-81804887D01*
G01X165203559Y-81828310D01*
G01X165207086Y-81839162D01*
G01X165207275Y-81839747D01*
G01X165207275Y-81839747D01*
G01X165235128Y-81926897D01*
G01X165261452Y-82010960D01*
G01X165286222Y-82091631D01*
G01X165309412Y-82168607D01*
G01X165330997Y-82241583D01*
G01X165350950Y-82310255D01*
G01X165369247Y-82374321D01*
G01X165385862Y-82433477D01*
G01X165400768Y-82487418D01*
G01X165413941Y-82535840D01*
G01X165425355Y-82578441D01*
G01X165434984Y-82614917D01*
G01X165442802Y-82644963D01*
G01X165448785Y-82668275D01*
G01X165452905Y-82684551D01*
G01X165455139Y-82693487D01*
G01X165455566Y-82695215D01*
G01X165455566Y-82695215D01*
G01X165493015Y-82649146D01*
G01X165530617Y-82595169D01*
G01X165567923Y-82535045D01*
G01X165604485Y-82470534D01*
G01X165639853Y-82403397D01*
G01X165673579Y-82335394D01*
G01X165705212Y-82268286D01*
G01X165734303Y-82203834D01*
G01X165760404Y-82143797D01*
G01X165783066Y-82089937D01*
G01X165801838Y-82044015D01*
G01X165816273Y-82007790D01*
G01X165825920Y-81983023D01*
G01X165830331Y-81971475D01*
G01X165830566Y-81970850D01*
G01X165830566Y-81970850D01*
G01X165864069Y-81878049D01*
G01X165893557Y-81789370D01*
G01X165919285Y-81705025D01*
G01X165941511Y-81625229D01*
G01X165960491Y-81550195D01*
G01X165976480Y-81480136D01*
G01X165989736Y-81415266D01*
G01X166000514Y-81355799D01*
G01X166009072Y-81301947D01*
G01X166015664Y-81253926D01*
G01X166020548Y-81211948D01*
G01X166023979Y-81176227D01*
G01X166026215Y-81146977D01*
G01X166027510Y-81124411D01*
G01X166028123Y-81108742D01*
G01X166028308Y-81100184D01*
G01X166028320Y-81098536D01*
G01X166028320Y-81098536D01*
G01X166025177Y-81010952D01*
G01X166019434Y-80962892D01*
G01X166016602Y-80949122D01*
G01X166016602Y-80949122D01*
G01X166097016Y-80935340D01*
G01X166137492Y-80931684D01*
G01X166142578Y-80931543D01*
G01X166142578Y-80931543D01*
G01X166214841Y-80946542D01*
G01X166241129Y-80964161D01*
G01X166241455Y-80964502D01*
G01X166241455Y-80964502D01*
G01X166265625Y-81021728D01*
G01X166271361Y-81072365D01*
G01X166271484Y-81078028D01*
G01X166271484Y-81078028D01*
G01X166269313Y-81139606D01*
G01X166263159Y-81205018D01*
G01X166253567Y-81273255D01*
G01X166241079Y-81343308D01*
G01X166226238Y-81414170D01*
G01X166209588Y-81484833D01*
G01X166191670Y-81554288D01*
G01X166173029Y-81621528D01*
G01X166154206Y-81685544D01*
G01X166135746Y-81745329D01*
G01X166118191Y-81799874D01*
G01X166102083Y-81848171D01*
G01X166087966Y-81889212D01*
G01X166076383Y-81921990D01*
G01X166067877Y-81945495D01*
G01X166062990Y-81958721D01*
G01X166062012Y-81961329D01*
G01X166062012Y-81961329D01*
G01X166024246Y-82058037D01*
G01X165986556Y-82148821D01*
G01X165949241Y-82233673D01*
G01X165912599Y-82312585D01*
G01X165876927Y-82385550D01*
G01X165842524Y-82452561D01*
G01X165809689Y-82513609D01*
G01X165778718Y-82568687D01*
G01X165749909Y-82617787D01*
G01X165723562Y-82660903D01*
G01X165699974Y-82698025D01*
G01X165679444Y-82729148D01*
G01X165662268Y-82754262D01*
G01X165648745Y-82773361D01*
G01X165639174Y-82786437D01*
G01X165633852Y-82793482D01*
G01X165632812Y-82794825D01*
G01X165632812Y-82794825D01*
G01X165576182Y-82863420D01*
G01X165534242Y-82904949D01*
G01X165510659Y-82924042D01*
G01X165506836Y-82926661D01*
G01X165506836Y-82926661D01*
G01X165442406Y-82951926D01*
G01X165394289Y-82958629D01*
G01X165386719Y-82958887D01*
G01X165386719Y-82958887D01*
G01X165323798Y-82955870D01*
G01X165288574Y-82953028D01*
G01X165288574Y-82953028D01*
G01X165273113Y-82879559D01*
G01X165255914Y-82804554D01*
G01X165237252Y-82728587D01*
G01X165217400Y-82652231D01*
G01X165196632Y-82576059D01*
G01X165175222Y-82500646D01*
G01X165153442Y-82426564D01*
G01X165131566Y-82354387D01*
G01X165109869Y-82284689D01*
G01X165088623Y-82218042D01*
G01X165068102Y-82155022D01*
G01X165048580Y-82096200D01*
G01X165030330Y-82042150D01*
G01X165013626Y-81993447D01*
G01X164998741Y-81950663D01*
G01X164985949Y-81914372D01*
G01X164975524Y-81885147D01*
G01X164967738Y-81863562D01*
G01X164962866Y-81850191D01*
G01X164961182Y-81845606D01*
G01X164961182Y-81845606D01*
G01X164961182Y-81845606D01*
G01X164920409Y-81738246D01*
G01X164881231Y-81640549D01*
G01X164843768Y-81552117D01*
G01X164808145Y-81472550D01*
G01X164774482Y-81401451D01*
G01X164742903Y-81338419D01*
G01X164713530Y-81283058D01*
G01X164686485Y-81234967D01*
G01X164661891Y-81193749D01*
G01X164639871Y-81159004D01*
G01X164620546Y-81130335D01*
G01X164604040Y-81107342D01*
G01X164590474Y-81089626D01*
G01X164579972Y-81076789D01*
G01X164572654Y-81068433D01*
G01X164568645Y-81064158D01*
G01X164567871Y-81063379D01*
G37*
G36*
G01X166375488Y-82821192D02*
G01X166375488Y-82821192D01*
G01X166380320Y-82790623D01*
G01X166394150Y-82752732D01*
G01X166415978Y-82708480D01*
G01X166444805Y-82658829D01*
G01X166479629Y-82604738D01*
G01X166519453Y-82547171D01*
G01X166563276Y-82487088D01*
G01X166610098Y-82425450D01*
G01X166658919Y-82363219D01*
G01X166708740Y-82301355D01*
G01X166758561Y-82240822D01*
G01X166807383Y-82182579D01*
G01X166854205Y-82127587D01*
G01X166898027Y-82076810D01*
G01X166937851Y-82031206D01*
G01X166972676Y-81991739D01*
G01X167001502Y-81959368D01*
G01X167023330Y-81935057D01*
G01X167037160Y-81919765D01*
G01X167041992Y-81914454D01*
G01X167041992Y-81914454D01*
G01X167041992Y-81914454D01*
G01X166977577Y-81812567D01*
G01X166916597Y-81718942D01*
G01X166859038Y-81633252D01*
G01X166804887Y-81555168D01*
G01X166754127Y-81484362D01*
G01X166706747Y-81420504D01*
G01X166662730Y-81363266D01*
G01X166622062Y-81312321D01*
G01X166584731Y-81267339D01*
G01X166550720Y-81227991D01*
G01X166520016Y-81193950D01*
G01X166492605Y-81164887D01*
G01X166468473Y-81140474D01*
G01X166447604Y-81120381D01*
G01X166429985Y-81104281D01*
G01X166415602Y-81091844D01*
G01X166404439Y-81082743D01*
G01X166396484Y-81076649D01*
G01X166391721Y-81073234D01*
G01X166390137Y-81072168D01*
G01X166390137Y-81072168D01*
G01X166390137Y-81072168D01*
G01X166453926Y-81006277D01*
G01X166512226Y-80965058D01*
G01X166560817Y-80942724D01*
G01X166595479Y-80933487D01*
G01X166611993Y-80931561D01*
G01X166612793Y-80931543D01*
G01X166612793Y-80931543D01*
G01X166663170Y-80951227D01*
G01X166712585Y-80994532D01*
G01X166750191Y-81037836D01*
G01X166765137Y-81057520D01*
G01X166765137Y-81057520D01*
G01X166765137Y-81057520D01*
G01X166806087Y-81117044D01*
G01X166847939Y-81179223D01*
G01X166890086Y-81242966D01*
G01X166931923Y-81307182D01*
G01X166972844Y-81370779D01*
G01X167012242Y-81432667D01*
G01X167049511Y-81491754D01*
G01X167084047Y-81546949D01*
G01X167115242Y-81597159D01*
G01X167142491Y-81641295D01*
G01X167165187Y-81678265D01*
G01X167182726Y-81706977D01*
G01X167194501Y-81726340D01*
G01X167199906Y-81735264D01*
G01X167200195Y-81735743D01*
G01X167200195Y-81735743D01*
G01X167249539Y-81673960D01*
G01X167296113Y-81611852D01*
G01X167339348Y-81551027D01*
G01X167378672Y-81493094D01*
G01X167413513Y-81439661D01*
G01X167443301Y-81392336D01*
G01X167467463Y-81352728D01*
G01X167485430Y-81322446D01*
G01X167496628Y-81303097D01*
G01X167500488Y-81296290D01*
G01X167500488Y-81296290D01*
G01X167500488Y-81296290D01*
G01X167546392Y-81209917D01*
G01X167582094Y-81134898D01*
G01X167608830Y-81071443D01*
G01X167627837Y-81019766D01*
G01X167640349Y-80980079D01*
G01X167647604Y-80952593D01*
G01X167650836Y-80937523D01*
G01X167651367Y-80934473D01*
G01X167651367Y-80934473D01*
G01X167746658Y-80964181D01*
G01X167808089Y-81002609D01*
G01X167843095Y-81042529D01*
G01X167859107Y-81076714D01*
G01X167863557Y-81097937D01*
G01X167863769Y-81101465D01*
G01X167863769Y-81101465D01*
G01X167854476Y-81144024D01*
G01X167830423Y-81199458D01*
G01X167797351Y-81260917D01*
G01X167760998Y-81321553D01*
G01X167727105Y-81374517D01*
G01X167701413Y-81412958D01*
G01X167689659Y-81430028D01*
G01X167689453Y-81430323D01*
G01X167689453Y-81430323D01*
G01X167641779Y-81496829D01*
G01X167593582Y-81561636D01*
G01X167545909Y-81623793D01*
G01X167499802Y-81682348D01*
G01X167456306Y-81736349D01*
G01X167416466Y-81784846D01*
G01X167381326Y-81826886D01*
G01X167351931Y-81861519D01*
G01X167329325Y-81887792D01*
G01X167314551Y-81904754D01*
G01X167308655Y-81911454D01*
G01X167308594Y-81911524D01*
G01X167308594Y-81911524D01*
G01X167376939Y-82026407D01*
G01X167441790Y-82131811D01*
G01X167503146Y-82228126D01*
G01X167561004Y-82315739D01*
G01X167615364Y-82395037D01*
G01X167666225Y-82466408D01*
G01X167713586Y-82530241D01*
G01X167757445Y-82586922D01*
G01X167797802Y-82636841D01*
G01X167834656Y-82680384D01*
G01X167868005Y-82717939D01*
G01X167897848Y-82749895D01*
G01X167924184Y-82776639D01*
G01X167947012Y-82798559D01*
G01X167966331Y-82816042D01*
G01X167982141Y-82829477D01*
G01X167994438Y-82839251D01*
G01X168003224Y-82845753D01*
G01X168008496Y-82849369D01*
G01X168010254Y-82850489D01*
G01X168010254Y-82850489D01*
G01X168010254Y-82850489D01*
G01X167941830Y-82915839D01*
G01X167883126Y-82954244D01*
G01X167838051Y-82972865D01*
G01X167810510Y-82978867D01*
G01X167803711Y-82979395D01*
G01X167803711Y-82979395D01*
G01X167747021Y-82959994D01*
G01X167695620Y-82918064D01*
G01X167659547Y-82878011D01*
G01X167648437Y-82863672D01*
G01X167648437Y-82863672D01*
G01X167615083Y-82818422D01*
G01X167579230Y-82767767D01*
G01X167541479Y-82712791D01*
G01X167502433Y-82654574D01*
G01X167462694Y-82594200D01*
G01X167422863Y-82532749D01*
G01X167383541Y-82471305D01*
G01X167345332Y-82410950D01*
G01X167308836Y-82352765D01*
G01X167274656Y-82297832D01*
G01X167243393Y-82247235D01*
G01X167215649Y-82202054D01*
G01X167192026Y-82163372D01*
G01X167173126Y-82132272D01*
G01X167159550Y-82109834D01*
G01X167151901Y-82097142D01*
G01X167150391Y-82094629D01*
G01X167150391Y-82094629D01*
G01X167104107Y-82141727D01*
G01X167058340Y-82192509D01*
G01X167013890Y-82245282D01*
G01X166971558Y-82298356D01*
G01X166932144Y-82350038D01*
G01X166896451Y-82398639D01*
G01X166865278Y-82442464D01*
G01X166839426Y-82479825D01*
G01X166819698Y-82509028D01*
G01X166806892Y-82528383D01*
G01X166801811Y-82536197D01*
G01X166801758Y-82536280D01*
G01X166801758Y-82536280D01*
G01X166748085Y-82623362D01*
G01X166703542Y-82702059D01*
G01X166667369Y-82771909D01*
G01X166638805Y-82832450D01*
G01X166617089Y-82883220D01*
G01X166601463Y-82923756D01*
G01X166591164Y-82953597D01*
G01X166585432Y-82972281D01*
G01X166583508Y-82979345D01*
G01X166583496Y-82979395D01*
G01X166583496Y-82979395D01*
G01X166490177Y-82952034D01*
G01X166430016Y-82915800D01*
G01X166395735Y-82877766D01*
G01X166380054Y-82845006D01*
G01X166375696Y-82824593D01*
G01X166375488Y-82821192D01*
G37*
G36*
G01X168864258Y-81954004D02*
G01X168864258Y-81954004D01*
G01X168867840Y-81856206D01*
G01X168877885Y-81764693D01*
G01X168893341Y-81679592D01*
G01X168913156Y-81601029D01*
G01X168936277Y-81529131D01*
G01X168961653Y-81464025D01*
G01X168988232Y-81405837D01*
G01X169014960Y-81354693D01*
G01X169040787Y-81310721D01*
G01X169064660Y-81274047D01*
G01X169085527Y-81244798D01*
G01X169102336Y-81223100D01*
G01X169114034Y-81209080D01*
G01X169119570Y-81202864D01*
G01X169119873Y-81202540D01*
G01X169119873Y-81202540D01*
G01X169175959Y-81149521D01*
G01X169236018Y-81103912D01*
G01X169298793Y-81065155D01*
G01X169363025Y-81032692D01*
G01X169427455Y-81005966D01*
G01X169490824Y-80984418D01*
G01X169551874Y-80967491D01*
G01X169609347Y-80954628D01*
G01X169661983Y-80945270D01*
G01X169708524Y-80938860D01*
G01X169747712Y-80934841D01*
G01X169778287Y-80932653D01*
G01X169798991Y-80931741D01*
G01X169808567Y-80931546D01*
G01X169809082Y-80931543D01*
G01X169809082Y-80931543D01*
G01X169896480Y-80935919D01*
G01X169975128Y-80947383D01*
G01X170043925Y-80963447D01*
G01X170101770Y-80981618D01*
G01X170147564Y-80999405D01*
G01X170180204Y-81014319D01*
G01X170198591Y-81023868D01*
G01X170202393Y-81026026D01*
G01X170202393Y-81026026D01*
G01X170273696Y-81080192D01*
G01X170319664Y-81136428D01*
G01X170345858Y-81188404D01*
G01X170357839Y-81229789D01*
G01X170361169Y-81254254D01*
G01X170361328Y-81258204D01*
G01X170361328Y-81258204D01*
G01X170341995Y-81323584D01*
G01X170296584Y-81367289D01*
G01X170243979Y-81393227D01*
G01X170203064Y-81405305D01*
G01X170191406Y-81407618D01*
G01X170191406Y-81407618D01*
G01X170155251Y-81335635D01*
G01X170112894Y-81277891D01*
G01X170070947Y-81234385D01*
G01X170036023Y-81205118D01*
G01X170014733Y-81190088D01*
G01X170011230Y-81187891D01*
G01X170011230Y-81187891D01*
G01X169940552Y-81153573D01*
G01X169872971Y-81132105D01*
G01X169814755Y-81120472D01*
G01X169772176Y-81115661D01*
G01X169751502Y-81114658D01*
G01X169750488Y-81114649D01*
G01X169750488Y-81114649D01*
G01X169668869Y-81120904D01*
G01X169593937Y-81137881D01*
G01X169526143Y-81162901D01*
G01X169465934Y-81193282D01*
G01X169413757Y-81226343D01*
G01X169370062Y-81259405D01*
G01X169335297Y-81289786D01*
G01X169309910Y-81314805D01*
G01X169294349Y-81331783D01*
G01X169289062Y-81338038D01*
G01X169289062Y-81338038D01*
G01X169289062Y-81338038D01*
G01X169245023Y-81400682D01*
G01X169208887Y-81466699D01*
G01X169179873Y-81534156D01*
G01X169157199Y-81601122D01*
G01X169140085Y-81665664D01*
G01X169127747Y-81725851D01*
G01X169119404Y-81779751D01*
G01X169114275Y-81825432D01*
G01X169111577Y-81860963D01*
G01X169110530Y-81884412D01*
G01X169110352Y-81893846D01*
G01X169110351Y-81893946D01*
G01X169110351Y-81893946D01*
G01X169113626Y-81983609D01*
G01X169122713Y-82068100D01*
G01X169136504Y-82147002D01*
G01X169153893Y-82219894D01*
G01X169173773Y-82286360D01*
G01X169195037Y-82345980D01*
G01X169216577Y-82398336D01*
G01X169237287Y-82443009D01*
G01X169256060Y-82479581D01*
G01X169271789Y-82507633D01*
G01X169283366Y-82526748D01*
G01X169289685Y-82536505D01*
G01X169290527Y-82537745D01*
G01X169290527Y-82537745D01*
G01X169342322Y-82601819D01*
G01X169399050Y-82654393D01*
G01X169458667Y-82696606D01*
G01X169519130Y-82729594D01*
G01X169578393Y-82754495D01*
G01X169634413Y-82772446D01*
G01X169685147Y-82784584D01*
G01X169728550Y-82792047D01*
G01X169762579Y-82795971D01*
G01X169785189Y-82797494D01*
G01X169794337Y-82797754D01*
G01X169794434Y-82797754D01*
G01X169794434Y-82797754D01*
G01X169869550Y-82792367D01*
G01X169937364Y-82779142D01*
G01X169994136Y-82762489D01*
G01X170036122Y-82746816D01*
G01X170059582Y-82736530D01*
G01X170063232Y-82734766D01*
G01X170063232Y-82734766D01*
G01X170128705Y-82693614D01*
G01X170181844Y-82646989D01*
G01X170221895Y-82602427D01*
G01X170248104Y-82567462D01*
G01X170259718Y-82549631D01*
G01X170260254Y-82548731D01*
G01X170260254Y-82548731D01*
G01X170336471Y-82594484D01*
G01X170375610Y-82642298D01*
G01X170390030Y-82679949D01*
G01X170392090Y-82695215D01*
G01X170392090Y-82695215D01*
G01X170392090Y-82695215D01*
G01X170375880Y-82754319D01*
G01X170336654Y-82806208D01*
G01X170288518Y-82848109D01*
G01X170245580Y-82877248D01*
G01X170221946Y-82890854D01*
G01X170220703Y-82891504D01*
G01X170220703Y-82891504D01*
G01X170156098Y-82919500D01*
G01X170087979Y-82940813D01*
G01X170019795Y-82956355D01*
G01X169954993Y-82967037D01*
G01X169897019Y-82973770D01*
G01X169849323Y-82977466D01*
G01X169815351Y-82979035D01*
G01X169798551Y-82979389D01*
G01X169797363Y-82979395D01*
G01X169797363Y-82979395D01*
G01X169710968Y-82975423D01*
G01X169629703Y-82964284D01*
G01X169553746Y-82947145D01*
G01X169483276Y-82925173D01*
G01X169418470Y-82899534D01*
G01X169359506Y-82871395D01*
G01X169306561Y-82841923D01*
G01X169259814Y-82812284D01*
G01X169219443Y-82783645D01*
G01X169185625Y-82757172D01*
G01X169158539Y-82734033D01*
G01X169138362Y-82715394D01*
G01X169125271Y-82702422D01*
G01X169119446Y-82696283D01*
G01X169119141Y-82695948D01*
G01X169119141Y-82695948D01*
G01X169069275Y-82634068D01*
G01X169026377Y-82568345D01*
G01X168989925Y-82500084D01*
G01X168959392Y-82430588D01*
G01X168934255Y-82361161D01*
G01X168913988Y-82293106D01*
G01X168898068Y-82227729D01*
G01X168885970Y-82166331D01*
G01X168877168Y-82110218D01*
G01X168871140Y-82060693D01*
G01X168867359Y-82019059D01*
G01X168865302Y-81986622D01*
G01X168864444Y-81964684D01*
G01X168864260Y-81954550D01*
G01X168864258Y-81954004D01*
G37*
G36*
G01X170657227Y-82254297D02*
G01X170657227Y-82254297D01*
G01X170661342Y-82168510D01*
G01X170672638Y-82089330D01*
G01X170689538Y-82017066D01*
G01X170710466Y-81952024D01*
G01X170733846Y-81894514D01*
G01X170758102Y-81844841D01*
G01X170781657Y-81803315D01*
G01X170802935Y-81770241D01*
G01X170820361Y-81745929D01*
G01X170832357Y-81730685D01*
G01X170837349Y-81724816D01*
G01X170837402Y-81724756D01*
G01X170837402Y-81724756D01*
G01X170894392Y-81670570D01*
G01X170955644Y-81627180D01*
G01X171018743Y-81593388D01*
G01X171081269Y-81567995D01*
G01X171140808Y-81549799D01*
G01X171194941Y-81537602D01*
G01X171241252Y-81530204D01*
G01X171277324Y-81526405D01*
G01X171300740Y-81525005D01*
G01X171309082Y-81524805D01*
G01X171309082Y-81524805D01*
G01X171309082Y-81524805D01*
G01X171393898Y-81530404D01*
G01X171471428Y-81545600D01*
G01X171541285Y-81567995D01*
G01X171603082Y-81595188D01*
G01X171656433Y-81624781D01*
G01X171700951Y-81654374D01*
G01X171736249Y-81681567D01*
G01X171761941Y-81703961D01*
G01X171777640Y-81719158D01*
G01X171782959Y-81724756D01*
G01X171782959Y-81724756D01*
G01X171782959Y-81724756D01*
G01X171827179Y-81781559D01*
G01X171863463Y-81842653D01*
G01X171892596Y-81906030D01*
G01X171915362Y-81969681D01*
G01X171932547Y-82031599D01*
G01X171944936Y-82089773D01*
G01X171953313Y-82142196D01*
G01X171958463Y-82186859D01*
G01X171961171Y-82221753D01*
G01X171962223Y-82244869D01*
G01X171962402Y-82254199D01*
G01X171962402Y-82254297D01*
G01X171962402Y-82254297D01*
G01X171958303Y-82340035D01*
G01X171947053Y-82419077D01*
G01X171930222Y-82491135D01*
G01X171909379Y-82555921D01*
G01X171886094Y-82613147D01*
G01X171861937Y-82662523D01*
G01X171838478Y-82703763D01*
G01X171817286Y-82736576D01*
G01X171799931Y-82760676D01*
G01X171787983Y-82775774D01*
G01X171783012Y-82781582D01*
G01X171782959Y-82781641D01*
G01X171782959Y-82781641D01*
G01X171726086Y-82835232D01*
G01X171664769Y-82878145D01*
G01X171601467Y-82911565D01*
G01X171538635Y-82936680D01*
G01X171478729Y-82954676D01*
G01X171424207Y-82966739D01*
G01X171377525Y-82974056D01*
G01X171341139Y-82977813D01*
G01X171317506Y-82979197D01*
G01X171309082Y-82979395D01*
G01X171309082Y-82979395D01*
G01X171309082Y-82979395D01*
G01X171225039Y-82973858D01*
G01X171148090Y-82958829D01*
G01X171078646Y-82936680D01*
G01X171017121Y-82909786D01*
G01X170963928Y-82880518D01*
G01X170919480Y-82851250D01*
G01X170884191Y-82824356D01*
G01X170858473Y-82802208D01*
G01X170842739Y-82787178D01*
G01X170837402Y-82781641D01*
G01X170837402Y-82781641D01*
G01X170837402Y-82781641D01*
G01X170793002Y-82725380D01*
G01X170756570Y-82664731D01*
G01X170727318Y-82601710D01*
G01X170704458Y-82538337D01*
G01X170687203Y-82476630D01*
G01X170674764Y-82418608D01*
G01X170666353Y-82366287D01*
G01X170661182Y-82321688D01*
G01X170658462Y-82286827D01*
G01X170657407Y-82263724D01*
G01X170657227Y-82254396D01*
G01X170657227Y-82254297D01*
G37*
%LPC*%
G36*
G01X170868164Y-82211817D02*
G01X170868164Y-82211817D01*
G01X170872792Y-82300749D01*
G01X170885068Y-82381333D01*
G01X170902575Y-82452688D01*
G01X170922900Y-82513933D01*
G01X170943627Y-82564188D01*
G01X170962342Y-82602571D01*
G01X170976629Y-82628202D01*
G01X170984075Y-82640199D01*
G01X170984619Y-82641016D01*
G01X170984619Y-82641016D01*
G01X171038092Y-82703391D01*
G01X171097399Y-82748433D01*
G01X171157608Y-82778963D01*
G01X171213789Y-82797803D01*
G01X171261008Y-82807775D01*
G01X171294334Y-82811701D01*
G01X171308835Y-82812401D01*
G01X171309082Y-82812403D01*
G01X171309082Y-82812403D01*
G01X171391566Y-82804906D01*
G01X171462787Y-82785502D01*
G01X171522335Y-82758821D01*
G01X171569801Y-82729495D01*
G01X171604774Y-82702153D01*
G01X171626844Y-82681426D01*
G01X171635602Y-82671944D01*
G01X171635742Y-82671778D01*
G01X171635742Y-82671778D01*
G01X171675761Y-82612902D01*
G01X171705442Y-82548845D01*
G01X171726330Y-82483932D01*
G01X171739970Y-82422490D01*
G01X171747905Y-82368842D01*
G01X171751682Y-82327315D01*
G01X171752844Y-82302234D01*
G01X171752930Y-82296778D01*
G01X171752930Y-82296778D01*
G01X171748156Y-82207788D01*
G01X171735494Y-82127049D01*
G01X171717436Y-82055474D01*
G01X171696473Y-81993973D01*
G01X171675094Y-81943458D01*
G01X171655790Y-81904839D01*
G01X171641053Y-81879029D01*
G01X171633374Y-81866938D01*
G01X171632812Y-81866114D01*
G01X171632812Y-81866114D01*
G01X171578241Y-81803205D01*
G01X171518578Y-81757779D01*
G01X171458550Y-81726988D01*
G01X171402883Y-81707986D01*
G01X171356306Y-81697929D01*
G01X171323543Y-81693970D01*
G01X171309324Y-81693264D01*
G01X171309082Y-81693262D01*
G01X171309082Y-81693262D01*
G01X171226676Y-81700837D01*
G01X171155657Y-81720443D01*
G01X171096387Y-81747402D01*
G01X171049227Y-81777034D01*
G01X171014539Y-81804661D01*
G01X170992684Y-81825604D01*
G01X170984025Y-81835184D01*
G01X170983887Y-81835352D01*
G01X170983887Y-81835352D01*
G01X170944368Y-81894728D01*
G01X170915058Y-81959156D01*
G01X170894431Y-82024330D01*
G01X170880962Y-82085943D01*
G01X170873126Y-82139690D01*
G01X170869396Y-82181264D01*
G01X170868248Y-82206360D01*
G01X170868164Y-82211817D01*
G37*
%LPD*%
G36*
G01X172277344Y-81570215D02*
G01X172277344Y-81570215D01*
G01X172347967Y-81550677D01*
G01X172384329Y-81546801D01*
G01X172385742Y-81546778D01*
G01X172385742Y-81546778D01*
G01X172458094Y-81565291D01*
G01X172499256Y-81608102D01*
G01X172518025Y-81656120D01*
G01X172523200Y-81690254D01*
G01X172523437Y-81696192D01*
G01X172523437Y-81696192D01*
G01X172581744Y-81657262D01*
G01X172643250Y-81624168D01*
G01X172698674Y-81598528D01*
G01X172738734Y-81581958D01*
G01X172754150Y-81576075D01*
G01X172754150Y-81576075D01*
G01X172754150Y-81576075D01*
G01X172829095Y-81553074D01*
G01X172898273Y-81538245D01*
G01X172957200Y-81529796D01*
G01X173001390Y-81525931D01*
G01X173026359Y-81524856D01*
G01X173030273Y-81524805D01*
G01X173030273Y-81524805D01*
G01X173114787Y-81532519D01*
G01X173186616Y-81551716D01*
G01X173244378Y-81576481D01*
G01X173286691Y-81600898D01*
G01X173312174Y-81619051D01*
G01X173319580Y-81625147D01*
G01X173319580Y-81625147D01*
G01X173362821Y-81677393D01*
G01X173393204Y-81739165D01*
G01X173412996Y-81803479D01*
G01X173424469Y-81863348D01*
G01X173429890Y-81911787D01*
G01X173431529Y-81941810D01*
G01X173431641Y-81948145D01*
G01X173431641Y-81948145D01*
G01X173431003Y-81981944D01*
G01X173429575Y-82051980D01*
G01X173428087Y-82123869D01*
G01X173427267Y-82163227D01*
G01X173427246Y-82164209D01*
G01X173427246Y-82164209D01*
G01X173425456Y-82257262D01*
G01X173424233Y-82334515D01*
G01X173423469Y-82395807D01*
G01X173423057Y-82440975D01*
G01X173422887Y-82469858D01*
G01X173422852Y-82482293D01*
G01X173422852Y-82482813D01*
G01X173422852Y-82482813D01*
G01X173424576Y-82570024D01*
G01X173429204Y-82649478D01*
G01X173435916Y-82720543D01*
G01X173443894Y-82782588D01*
G01X173452319Y-82834981D01*
G01X173460371Y-82877090D01*
G01X173467232Y-82908283D01*
G01X173472083Y-82927929D01*
G01X173474106Y-82935397D01*
G01X173474121Y-82935450D01*
G01X173474121Y-82935450D01*
G01X173404013Y-82954314D01*
G01X173361099Y-82958791D01*
G01X173356934Y-82958887D01*
G01X173356934Y-82958887D01*
G01X173281328Y-82945771D01*
G01X173247553Y-82926825D01*
G01X173244873Y-82924463D01*
G01X173244873Y-82924463D01*
G01X173217885Y-82868084D01*
G01X173210725Y-82815502D01*
G01X173210449Y-82806543D01*
G01X173210449Y-82806543D01*
G01X173210856Y-82755417D01*
G01X173211923Y-82690990D01*
G01X173213417Y-82619868D01*
G01X173215107Y-82548654D01*
G01X173216762Y-82483951D01*
G01X173218149Y-82432364D01*
G01X173219037Y-82400496D01*
G01X173219238Y-82393458D01*
G01X173219238Y-82393458D01*
G01X173222437Y-82279366D01*
G01X173224747Y-82191005D01*
G01X173226312Y-82125334D01*
G01X173227279Y-82079316D01*
G01X173227790Y-82049911D01*
G01X173227991Y-82034080D01*
G01X173228027Y-82028785D01*
G01X173228027Y-82028711D01*
G01X173228027Y-82028711D01*
G01X173220199Y-81941882D01*
G01X173201257Y-81873395D01*
G01X173178012Y-81823190D01*
G01X173157277Y-81791207D01*
G01X173145864Y-81777385D01*
G01X173145264Y-81776758D01*
G01X173145264Y-81776758D01*
G01X173085804Y-81732885D01*
G01X173024127Y-81707925D01*
G01X172971418Y-81696544D01*
G01X172938860Y-81693406D01*
G01X172933594Y-81693262D01*
G01X172933594Y-81693262D01*
G01X172860878Y-81699841D01*
G01X172790657Y-81717289D01*
G01X172724922Y-81742174D01*
G01X172665663Y-81771063D01*
G01X172614867Y-81800524D01*
G01X172574526Y-81827125D01*
G01X172546628Y-81847433D01*
G01X172533163Y-81858016D01*
G01X172532227Y-81858790D01*
G01X172532227Y-81858790D01*
G01X172533670Y-81963719D01*
G01X172534855Y-82057929D01*
G01X172535806Y-82141593D01*
G01X172536550Y-82214883D01*
G01X172537111Y-82277973D01*
G01X172537516Y-82331036D01*
G01X172537789Y-82374245D01*
G01X172537957Y-82407772D01*
G01X172538046Y-82431791D01*
G01X172538080Y-82446475D01*
G01X172538086Y-82451996D01*
G01X172538086Y-82452051D01*
G01X172538086Y-82452051D01*
G01X172538677Y-82544903D01*
G01X172540264Y-82630450D01*
G01X172542565Y-82707768D01*
G01X172545301Y-82775932D01*
G01X172548189Y-82834019D01*
G01X172550950Y-82881104D01*
G01X172553302Y-82916263D01*
G01X172554965Y-82938572D01*
G01X172555659Y-82947107D01*
G01X172555664Y-82947168D01*
G01X172555664Y-82947168D01*
G01X172486999Y-82954859D01*
G01X172454590Y-82955958D01*
G01X172454590Y-82955958D01*
G01X172454590Y-82955958D01*
G01X172374434Y-82936802D01*
G01X172334728Y-82895403D01*
G01X172321259Y-82855857D01*
G01X172319824Y-82841700D01*
G01X172319824Y-82841700D01*
G01X172320808Y-82807283D01*
G01X172323048Y-82739954D01*
G01X172325473Y-82669332D01*
G01X172327015Y-82625041D01*
G01X172327148Y-82621241D01*
G01X172327148Y-82621241D01*
G01X172329650Y-82540392D01*
G01X172331505Y-82462461D01*
G01X172332810Y-82390139D01*
G01X172333663Y-82326121D01*
G01X172334159Y-82273101D01*
G01X172334395Y-82233772D01*
G01X172334467Y-82210828D01*
G01X172334473Y-82205958D01*
G01X172334473Y-82205958D01*
G01X172333434Y-82094421D01*
G01X172330553Y-81995643D01*
G01X172326180Y-81908991D01*
G01X172320667Y-81833838D01*
G01X172314363Y-81769551D01*
G01X172307621Y-81715503D01*
G01X172300791Y-81671061D01*
G01X172294225Y-81635598D01*
G01X172288272Y-81608481D01*
G01X172283285Y-81589083D01*
G01X172279614Y-81576771D01*
G01X172277611Y-81570918D01*
G01X172277344Y-81570215D01*
G37*
G36*
G01X173652832Y-81662500D02*
G01X173652832Y-81662500D01*
G01X173674501Y-81593550D01*
G01X173697457Y-81574633D01*
G01X173697510Y-81574610D01*
G01X173697510Y-81574610D01*
G01X173756373Y-81561294D01*
G01X173819758Y-81556315D01*
G01X173850554Y-81555567D01*
G01X173850586Y-81555567D01*
G01X173935547Y-81555567D01*
G01X173935547Y-81555567D01*
G01X173932485Y-81469852D01*
G01X173928850Y-81394292D01*
G01X173925056Y-81330340D01*
G01X173921519Y-81279450D01*
G01X173918655Y-81243075D01*
G01X173916879Y-81222668D01*
G01X173916504Y-81218653D01*
G01X173916504Y-81218653D01*
G01X173983337Y-81210962D01*
G01X174016113Y-81209864D01*
G01X174016113Y-81209864D01*
G01X174016113Y-81209864D01*
G01X174099106Y-81227717D01*
G01X174141724Y-81266993D01*
G01X174157425Y-81306269D01*
G01X174159668Y-81324122D01*
G01X174159668Y-81324122D01*
G01X174159668Y-81324122D01*
G01X174158216Y-81370219D01*
G01X174154858Y-81437901D01*
G01X174151092Y-81505362D01*
G01X174148415Y-81550797D01*
G01X174147949Y-81558497D01*
G01X174147949Y-81558497D01*
G01X174254607Y-81558045D01*
G01X174346605Y-81556821D01*
G01X174424752Y-81555016D01*
G01X174489855Y-81552825D01*
G01X174542725Y-81550440D01*
G01X174584168Y-81548055D01*
G01X174614994Y-81545864D01*
G01X174636012Y-81544059D01*
G01X174648029Y-81542834D01*
G01X174651855Y-81542383D01*
G01X174651855Y-81542383D01*
G01X174651855Y-81542383D01*
G01X174663258Y-81601938D01*
G01X174663574Y-81612696D01*
G01X174663574Y-81612696D01*
G01X174645006Y-81679729D01*
G01X174632080Y-81693262D01*
G01X174632080Y-81693262D01*
G01X174571372Y-81712471D01*
G01X174531820Y-81716696D01*
G01X174531738Y-81716700D01*
G01X174531738Y-81716700D01*
G01X174483427Y-81717700D01*
G01X174422617Y-81718442D01*
G01X174355528Y-81718964D01*
G01X174288376Y-81719305D01*
G01X174227379Y-81719504D01*
G01X174178756Y-81719598D01*
G01X174148723Y-81719627D01*
G01X174142090Y-81719629D01*
G01X174142090Y-81719629D01*
G01X174140793Y-81797771D01*
G01X174139703Y-81876006D01*
G01X174138803Y-81953130D01*
G01X174138073Y-82027945D01*
G01X174137496Y-82099247D01*
G01X174137054Y-82165835D01*
G01X174136730Y-82226508D01*
G01X174136504Y-82280064D01*
G01X174136359Y-82325302D01*
G01X174136277Y-82361020D01*
G01X174136241Y-82386017D01*
G01X174136231Y-82399091D01*
G01X174136230Y-82400782D01*
G01X174136230Y-82400782D01*
G01X174139790Y-82505204D01*
G01X174148887Y-82587725D01*
G01X174161147Y-82650273D01*
G01X174174199Y-82694776D01*
G01X174185669Y-82723162D01*
G01X174193184Y-82737359D01*
G01X174194824Y-82739893D01*
G01X174194824Y-82739893D01*
G01X174247258Y-82785504D01*
G01X174308521Y-82809761D01*
G01X174361117Y-82819407D01*
G01X174387550Y-82821187D01*
G01X174388184Y-82821192D01*
G01X174388184Y-82821192D01*
G01X174462215Y-82810859D01*
G01X174523627Y-82786587D01*
G01X174569488Y-82758471D01*
G01X174596869Y-82736603D01*
G01X174603516Y-82730372D01*
G01X174603516Y-82730372D01*
G01X174646583Y-82794556D01*
G01X174657399Y-82834051D01*
G01X174657715Y-82838770D01*
G01X174657715Y-82838770D01*
G01X174632603Y-82899302D01*
G01X174591347Y-82934071D01*
G01X174580078Y-82940577D01*
G01X174580078Y-82940577D01*
G01X174515238Y-82963665D01*
G01X174452025Y-82975102D01*
G01X174405734Y-82978982D01*
G01X174391113Y-82979395D01*
G01X174391113Y-82979395D01*
G01X174301290Y-82972748D01*
G01X174225687Y-82955328D01*
G01X174163743Y-82930922D01*
G01X174114898Y-82903313D01*
G01X174078592Y-82876287D01*
G01X174054266Y-82853627D01*
G01X174041359Y-82839119D01*
G01X174038818Y-82835840D01*
G01X174038818Y-82835840D01*
G01X174005923Y-82778761D01*
G01X173980881Y-82713841D01*
G01X173962619Y-82645513D01*
G01X173950068Y-82578213D01*
G01X173942156Y-82516375D01*
G01X173937814Y-82464435D01*
G01X173935970Y-82426827D01*
G01X173935553Y-82407985D01*
G01X173935547Y-82406641D01*
G01X173935547Y-82406641D01*
G01X173936844Y-82283705D01*
G01X173937933Y-82175243D01*
G01X173938834Y-82080486D01*
G01X173939564Y-81998664D01*
G01X173940141Y-81929008D01*
G01X173940582Y-81870748D01*
G01X173940907Y-81823115D01*
G01X173941133Y-81785340D01*
G01X173941278Y-81756652D01*
G01X173941359Y-81736282D01*
G01X173941396Y-81723461D01*
G01X173941406Y-81717419D01*
G01X173941406Y-81716700D01*
G01X173941406Y-81716700D01*
G01X173914283Y-81718579D01*
G01X173854845Y-81723192D01*
G01X173781749Y-81729002D01*
G01X173713654Y-81734469D01*
G01X173669218Y-81738057D01*
G01X173661621Y-81738672D01*
G01X173661621Y-81738672D01*
G01X173653177Y-81676894D01*
G01X173652832Y-81662500D01*
G37*
G36*
G01X174887695Y-81555567D02*
G01X174887695Y-81555567D01*
G01X174955909Y-81547944D01*
G01X174990170Y-81546778D01*
G01X174990234Y-81546778D01*
G01X174990234Y-81546778D01*
G01X175068994Y-81567005D01*
G01X175106593Y-81609927D01*
G01X175118256Y-81648903D01*
G01X175119141Y-81659571D01*
G01X175119141Y-81659571D01*
G01X175117676Y-81700586D01*
G01X175117676Y-81700586D01*
G01X175116226Y-81761035D01*
G01X175116211Y-81765040D01*
G01X175116211Y-81765040D01*
G01X175160201Y-81707383D01*
G01X175206906Y-81658600D01*
G01X175247340Y-81622246D01*
G01X175272519Y-81601879D01*
G01X175276611Y-81598780D01*
G01X175276611Y-81598780D01*
G01X175347151Y-81557278D01*
G01X175408974Y-81535207D01*
G01X175454120Y-81526429D01*
G01X175474633Y-81524810D01*
G01X175475098Y-81524805D01*
G01X175475098Y-81524805D01*
G01X175548087Y-81537731D01*
G01X175581805Y-81555048D01*
G01X175583496Y-81556299D01*
G01X175583496Y-81556299D01*
G01X175618673Y-81613035D01*
G01X175623047Y-81641993D01*
G01X175623047Y-81641993D01*
G01X175606940Y-81703519D01*
G01X175577502Y-81756124D01*
G01X175562988Y-81776758D01*
G01X175562988Y-81776758D01*
G01X175498681Y-81737593D01*
G01X175444418Y-81722295D01*
G01X175418342Y-81719633D01*
G01X175417969Y-81719629D01*
G01X175417969Y-81719629D01*
G01X175349525Y-81732239D01*
G01X175291927Y-81758493D01*
G01X175256365Y-81781025D01*
G01X175250244Y-81785547D01*
G01X175250244Y-81785547D01*
G01X175196792Y-81835937D01*
G01X175154134Y-81888795D01*
G01X175124462Y-81933107D01*
G01X175109968Y-81957860D01*
G01X175108887Y-81959864D01*
G01X175108887Y-81959864D01*
G01X175107820Y-82012020D01*
G01X175107050Y-82077372D01*
G01X175106529Y-82148443D01*
G01X175106207Y-82217757D01*
G01X175106036Y-82277837D01*
G01X175105969Y-82321208D01*
G01X175105957Y-82340393D01*
G01X175105957Y-82340723D01*
G01X175105957Y-82340723D01*
G01X175107262Y-82444703D01*
G01X175110844Y-82538392D01*
G01X175116202Y-82621892D01*
G01X175122838Y-82695306D01*
G01X175130251Y-82758735D01*
G01X175137942Y-82812284D01*
G01X175145411Y-82856053D01*
G01X175152157Y-82890146D01*
G01X175157683Y-82914665D01*
G01X175161486Y-82929713D01*
G01X175163069Y-82935393D01*
G01X175163086Y-82935450D01*
G01X175163086Y-82935450D01*
G01X175095160Y-82954547D01*
G01X175052179Y-82958823D01*
G01X175048828Y-82958887D01*
G01X175048828Y-82958887D01*
G01X174970500Y-82945223D01*
G01X174936187Y-82924106D01*
G01X174932373Y-82920069D01*
G01X174932373Y-82920069D01*
G01X174909852Y-82861951D01*
G01X174902871Y-82803900D01*
G01X174902344Y-82787500D01*
G01X174902344Y-82787500D01*
G01X174902707Y-82738778D01*
G01X174903546Y-82670393D01*
G01X174904488Y-82603311D01*
G01X174905157Y-82558493D01*
G01X174905273Y-82550928D01*
G01X174905273Y-82550928D01*
G01X174906588Y-82457460D01*
G01X174907435Y-82380875D01*
G01X174907918Y-82321969D01*
G01X174908139Y-82281535D01*
G01X174908200Y-82260368D01*
G01X174908203Y-82257227D01*
G01X174908203Y-82257227D01*
G01X174907830Y-82157288D01*
G01X174906796Y-82063723D01*
G01X174905226Y-81976888D01*
G01X174903247Y-81897138D01*
G01X174900984Y-81824829D01*
G01X174898564Y-81760316D01*
G01X174896112Y-81703954D01*
G01X174893755Y-81656101D01*
G01X174891618Y-81617109D01*
G01X174889828Y-81587336D01*
G01X174888510Y-81567137D01*
G01X174887791Y-81556867D01*
G01X174887695Y-81555567D01*
G37*
G36*
G01X175787109Y-82254297D02*
G01X175787109Y-82254297D01*
G01X175791225Y-82168510D01*
G01X175802521Y-82089330D01*
G01X175819421Y-82017066D01*
G01X175840349Y-81952024D01*
G01X175863729Y-81894514D01*
G01X175887985Y-81844841D01*
G01X175911540Y-81803315D01*
G01X175932818Y-81770241D01*
G01X175950244Y-81745929D01*
G01X175962240Y-81730685D01*
G01X175967231Y-81724816D01*
G01X175967285Y-81724756D01*
G01X175967285Y-81724756D01*
G01X176024275Y-81670570D01*
G01X176085527Y-81627180D01*
G01X176148625Y-81593388D01*
G01X176211152Y-81567995D01*
G01X176270691Y-81549799D01*
G01X176324824Y-81537602D01*
G01X176371135Y-81530204D01*
G01X176407207Y-81526405D01*
G01X176430622Y-81525005D01*
G01X176438965Y-81524805D01*
G01X176438965Y-81524805D01*
G01X176438965Y-81524805D01*
G01X176523781Y-81530404D01*
G01X176601310Y-81545600D01*
G01X176671167Y-81567995D01*
G01X176732965Y-81595188D01*
G01X176786316Y-81624781D01*
G01X176830834Y-81654374D01*
G01X176866132Y-81681567D01*
G01X176891824Y-81703961D01*
G01X176907523Y-81719158D01*
G01X176912842Y-81724756D01*
G01X176912842Y-81724756D01*
G01X176912842Y-81724756D01*
G01X176957062Y-81781559D01*
G01X176993346Y-81842653D01*
G01X177022479Y-81906030D01*
G01X177045245Y-81969681D01*
G01X177062430Y-82031599D01*
G01X177074819Y-82089773D01*
G01X177083196Y-82142196D01*
G01X177088346Y-82186859D01*
G01X177091054Y-82221753D01*
G01X177092106Y-82244869D01*
G01X177092285Y-82254199D01*
G01X177092285Y-82254297D01*
G01X177092285Y-82254297D01*
G01X177088186Y-82340035D01*
G01X177076936Y-82419077D01*
G01X177060105Y-82491135D01*
G01X177039262Y-82555921D01*
G01X177015977Y-82613147D01*
G01X176991820Y-82662523D01*
G01X176968360Y-82703763D01*
G01X176947169Y-82736576D01*
G01X176929814Y-82760676D01*
G01X176917866Y-82775774D01*
G01X176912895Y-82781582D01*
G01X176912842Y-82781641D01*
G01X176912842Y-82781641D01*
G01X176855968Y-82835232D01*
G01X176794652Y-82878145D01*
G01X176731350Y-82911565D01*
G01X176668518Y-82936680D01*
G01X176608612Y-82954676D01*
G01X176554090Y-82966739D01*
G01X176507407Y-82974056D01*
G01X176471021Y-82977813D01*
G01X176447388Y-82979197D01*
G01X176438965Y-82979395D01*
G01X176438965Y-82979395D01*
G01X176438965Y-82979395D01*
G01X176354922Y-82973858D01*
G01X176277973Y-82958829D01*
G01X176208529Y-82936680D01*
G01X176147004Y-82909786D01*
G01X176093811Y-82880518D01*
G01X176049363Y-82851250D01*
G01X176014074Y-82824356D01*
G01X175988355Y-82802208D01*
G01X175972622Y-82787178D01*
G01X175967285Y-82781641D01*
G01X175967285Y-82781641D01*
G01X175967285Y-82781641D01*
G01X175922885Y-82725380D01*
G01X175886452Y-82664731D01*
G01X175857201Y-82601710D01*
G01X175834341Y-82538337D01*
G01X175817086Y-82476630D01*
G01X175804647Y-82418608D01*
G01X175796236Y-82366287D01*
G01X175791065Y-82321688D01*
G01X175788345Y-82286827D01*
G01X175787289Y-82263724D01*
G01X175787109Y-82254396D01*
G01X175787109Y-82254297D01*
G37*
%LPC*%
G36*
G01X175998047Y-82211817D02*
G01X175998047Y-82211817D01*
G01X176002675Y-82300749D01*
G01X176014950Y-82381333D01*
G01X176032458Y-82452688D01*
G01X176052783Y-82513933D01*
G01X176073510Y-82564188D01*
G01X176092224Y-82602571D01*
G01X176106512Y-82628202D01*
G01X176113958Y-82640199D01*
G01X176114502Y-82641016D01*
G01X176114502Y-82641016D01*
G01X176167974Y-82703391D01*
G01X176227281Y-82748433D01*
G01X176287491Y-82778963D01*
G01X176343672Y-82797803D01*
G01X176390891Y-82807775D01*
G01X176424217Y-82811701D01*
G01X176438718Y-82812401D01*
G01X176438965Y-82812403D01*
G01X176438965Y-82812403D01*
G01X176521449Y-82804906D01*
G01X176592670Y-82785502D01*
G01X176652218Y-82758821D01*
G01X176699684Y-82729495D01*
G01X176734657Y-82702153D01*
G01X176756727Y-82681426D01*
G01X176765485Y-82671944D01*
G01X176765625Y-82671778D01*
G01X176765625Y-82671778D01*
G01X176805644Y-82612902D01*
G01X176835325Y-82548845D01*
G01X176856213Y-82483932D01*
G01X176869852Y-82422490D01*
G01X176877788Y-82368842D01*
G01X176881565Y-82327315D01*
G01X176882727Y-82302234D01*
G01X176882812Y-82296778D01*
G01X176882812Y-82296778D01*
G01X176878039Y-82207788D01*
G01X176865377Y-82127049D01*
G01X176847319Y-82055474D01*
G01X176826355Y-81993973D01*
G01X176804977Y-81943458D01*
G01X176785673Y-81904839D01*
G01X176770936Y-81879029D01*
G01X176763256Y-81866938D01*
G01X176762695Y-81866114D01*
G01X176762695Y-81866114D01*
G01X176708124Y-81803205D01*
G01X176648461Y-81757779D01*
G01X176588433Y-81726988D01*
G01X176532766Y-81707986D01*
G01X176486188Y-81697929D01*
G01X176453426Y-81693970D01*
G01X176439207Y-81693264D01*
G01X176438965Y-81693262D01*
G01X176438965Y-81693262D01*
G01X176356559Y-81700837D01*
G01X176285540Y-81720443D01*
G01X176226270Y-81747402D01*
G01X176179109Y-81777034D01*
G01X176144421Y-81804661D01*
G01X176122567Y-81825604D01*
G01X176113908Y-81835184D01*
G01X176113769Y-81835352D01*
G01X176113769Y-81835352D01*
G01X176074251Y-81894728D01*
G01X176044940Y-81959156D01*
G01X176024314Y-82024330D01*
G01X176010845Y-82085943D01*
G01X176003008Y-82139690D01*
G01X175999279Y-82181264D01*
G01X175998131Y-82206360D01*
G01X175998047Y-82211817D01*
G37*
%LPD*%
G36*
G01X177407227Y-80729395D02*
G01X177407227Y-80729395D01*
G01X177475621Y-80721842D01*
G01X177512425Y-80720607D01*
G01X177512695Y-80720606D01*
G01X177512695Y-80720606D01*
G01X177592300Y-80738459D01*
G01X177633179Y-80777735D01*
G01X177648239Y-80817011D01*
G01X177650391Y-80834864D01*
G01X177650391Y-80834864D01*
G01X177650391Y-80834864D01*
G01X177649329Y-80878829D01*
G01X177647295Y-80950784D01*
G01X177646017Y-80994569D01*
G01X177645996Y-80995264D01*
G01X177645996Y-80995264D01*
G01X177644190Y-81057366D01*
G01X177642277Y-81124708D01*
G01X177640373Y-81192800D01*
G01X177638594Y-81257152D01*
G01X177637055Y-81313276D01*
G01X177635873Y-81356681D01*
G01X177635163Y-81382879D01*
G01X177635010Y-81388575D01*
G01X177635010Y-81388575D01*
G01X177633065Y-81468927D01*
G01X177631546Y-81547243D01*
G01X177630400Y-81621593D01*
G01X177629576Y-81690045D01*
G01X177629019Y-81750670D01*
G01X177628677Y-81801538D01*
G01X177628498Y-81840718D01*
G01X177628429Y-81866281D01*
G01X177628418Y-81876295D01*
G01X177628418Y-81876368D01*
G01X177628418Y-82343653D01*
G01X177628418Y-82343653D01*
G01X177629723Y-82446256D01*
G01X177633304Y-82538944D01*
G01X177638663Y-82621767D01*
G01X177645299Y-82694778D01*
G01X177652712Y-82758026D01*
G01X177660403Y-82811565D01*
G01X177667871Y-82855443D01*
G01X177674618Y-82889714D01*
G01X177680143Y-82914429D01*
G01X177683947Y-82929637D01*
G01X177685530Y-82935392D01*
G01X177685547Y-82935450D01*
G01X177685547Y-82935450D01*
G01X177616817Y-82954771D01*
G01X177575176Y-82958847D01*
G01X177572754Y-82958887D01*
G01X177572754Y-82958887D01*
G01X177494596Y-82945736D01*
G01X177460275Y-82926068D01*
G01X177457031Y-82922999D01*
G01X177457031Y-82922999D01*
G01X177431766Y-82865471D01*
G01X177425062Y-82812584D01*
G01X177424805Y-82803614D01*
G01X177424805Y-82803614D01*
G01X177424961Y-82763704D01*
G01X177425365Y-82703188D01*
G01X177425921Y-82631520D01*
G01X177426532Y-82558153D01*
G01X177427101Y-82492541D01*
G01X177427533Y-82444139D01*
G01X177427731Y-82422400D01*
G01X177427734Y-82422022D01*
G01X177427734Y-82422022D01*
G01X177428599Y-82322702D01*
G01X177429274Y-82235010D01*
G01X177429783Y-82158928D01*
G01X177430149Y-82094439D01*
G01X177430397Y-82041524D01*
G01X177430549Y-82000167D01*
G01X177430628Y-81970349D01*
G01X177430659Y-81952054D01*
G01X177430664Y-81945263D01*
G01X177430664Y-81945215D01*
G01X177430664Y-81596583D01*
G01X177430664Y-81596583D01*
G01X177430421Y-81475062D01*
G01X177429733Y-81364872D01*
G01X177428659Y-81265509D01*
G01X177427262Y-81176471D01*
G01X177425601Y-81097254D01*
G01X177423739Y-81027355D01*
G01X177421734Y-80966271D01*
G01X177419648Y-80913499D01*
G01X177417542Y-80868536D01*
G01X177415477Y-80830879D01*
G01X177413512Y-80800025D01*
G01X177411710Y-80775470D01*
G01X177410131Y-80756712D01*
G01X177408835Y-80743248D01*
G01X177407883Y-80734573D01*
G01X177407336Y-80730186D01*
G01X177407227Y-80729395D01*
G37*
G36*
G01X178045898Y-80729395D02*
G01X178045898Y-80729395D01*
G01X178114293Y-80721842D01*
G01X178151097Y-80720607D01*
G01X178151367Y-80720606D01*
G01X178151367Y-80720606D01*
G01X178230972Y-80738459D01*
G01X178271851Y-80777735D01*
G01X178286911Y-80817011D01*
G01X178289062Y-80834864D01*
G01X178289062Y-80834864D01*
G01X178289062Y-80834864D01*
G01X178288000Y-80878829D01*
G01X178285966Y-80950784D01*
G01X178284688Y-80994569D01*
G01X178284668Y-80995264D01*
G01X178284668Y-80995264D01*
G01X178282862Y-81057366D01*
G01X178280949Y-81124708D01*
G01X178279045Y-81192800D01*
G01X178277266Y-81257152D01*
G01X178275727Y-81313276D01*
G01X178274545Y-81356681D01*
G01X178273835Y-81382879D01*
G01X178273682Y-81388575D01*
G01X178273682Y-81388575D01*
G01X178271737Y-81468927D01*
G01X178270218Y-81547243D01*
G01X178269072Y-81621593D01*
G01X178268247Y-81690045D01*
G01X178267690Y-81750670D01*
G01X178267349Y-81801538D01*
G01X178267170Y-81840718D01*
G01X178267101Y-81866281D01*
G01X178267090Y-81876295D01*
G01X178267090Y-81876368D01*
G01X178267090Y-82343653D01*
G01X178267090Y-82343653D01*
G01X178268395Y-82446256D01*
G01X178271976Y-82538944D01*
G01X178277335Y-82621767D01*
G01X178283971Y-82694778D01*
G01X178291384Y-82758026D01*
G01X178299075Y-82811565D01*
G01X178306543Y-82855443D01*
G01X178313290Y-82889714D01*
G01X178318815Y-82914429D01*
G01X178322619Y-82929637D01*
G01X178324202Y-82935392D01*
G01X178324219Y-82935450D01*
G01X178324219Y-82935450D01*
G01X178255489Y-82954771D01*
G01X178213848Y-82958847D01*
G01X178211426Y-82958887D01*
G01X178211426Y-82958887D01*
G01X178133268Y-82945736D01*
G01X178098947Y-82926068D01*
G01X178095703Y-82922999D01*
G01X178095703Y-82922999D01*
G01X178070437Y-82865471D01*
G01X178063734Y-82812584D01*
G01X178063477Y-82803614D01*
G01X178063477Y-82803614D01*
G01X178063633Y-82763704D01*
G01X178064037Y-82703188D01*
G01X178064593Y-82631520D01*
G01X178065204Y-82558153D01*
G01X178065773Y-82492541D01*
G01X178066205Y-82444139D01*
G01X178066403Y-82422400D01*
G01X178066406Y-82422022D01*
G01X178066406Y-82422022D01*
G01X178067271Y-82322702D01*
G01X178067946Y-82235010D01*
G01X178068455Y-82158928D01*
G01X178068821Y-82094439D01*
G01X178069069Y-82041524D01*
G01X178069221Y-82000167D01*
G01X178069300Y-81970349D01*
G01X178069331Y-81952054D01*
G01X178069336Y-81945263D01*
G01X178069336Y-81945215D01*
G01X178069336Y-81596583D01*
G01X178069336Y-81596583D01*
G01X178069093Y-81475062D01*
G01X178068404Y-81364872D01*
G01X178067331Y-81265509D01*
G01X178065934Y-81176471D01*
G01X178064273Y-81097254D01*
G01X178062410Y-81027355D01*
G01X178060406Y-80966271D01*
G01X178058320Y-80913499D01*
G01X178056214Y-80868536D01*
G01X178054148Y-80830879D01*
G01X178052184Y-80800025D01*
G01X178050382Y-80775470D01*
G01X178048802Y-80756712D01*
G01X178047506Y-80743248D01*
G01X178046555Y-80734573D01*
G01X178046008Y-80730186D01*
G01X178045898Y-80729395D01*
G37*
G36*
G01X178639160Y-82260157D02*
G01X178639160Y-82260157D01*
G01X178643727Y-82168450D01*
G01X178656263Y-82084832D01*
G01X178675018Y-82009418D01*
G01X178698243Y-81942323D01*
G01X178724189Y-81883663D01*
G01X178751107Y-81833553D01*
G01X178777248Y-81792109D01*
G01X178800861Y-81759445D01*
G01X178820199Y-81735678D01*
G01X178833513Y-81720921D01*
G01X178839052Y-81715292D01*
G01X178839111Y-81715235D01*
G01X178839111Y-81715235D01*
G01X178900845Y-81663628D01*
G01X178964719Y-81622305D01*
G01X179028698Y-81590123D01*
G01X179090748Y-81565938D01*
G01X179148834Y-81548609D01*
G01X179200922Y-81536993D01*
G01X179244976Y-81529947D01*
G01X179278963Y-81526329D01*
G01X179300847Y-81524996D01*
G01X179308594Y-81524805D01*
G01X179308594Y-81524805D01*
G01X179308594Y-81524805D01*
G01X179391780Y-81531131D01*
G01X179464821Y-81547503D01*
G01X179526870Y-81570015D01*
G01X179577085Y-81594759D01*
G01X179614622Y-81617829D01*
G01X179638635Y-81635317D01*
G01X179648281Y-81643317D01*
G01X179648437Y-81643457D01*
G01X179648437Y-81643457D01*
G01X179701537Y-81702739D01*
G01X179737816Y-81763388D01*
G01X179760477Y-81820473D01*
G01X179772726Y-81869062D01*
G01X179777766Y-81904223D01*
G01X179778800Y-81921024D01*
G01X179778809Y-81921778D01*
G01X179778809Y-81921778D01*
G01X179772285Y-82001658D01*
G01X179757935Y-82063135D01*
G01X179743584Y-82102640D01*
G01X179737060Y-82116602D01*
G01X179737060Y-82116602D01*
G01X179737060Y-82116602D01*
G01X179693615Y-82178953D01*
G01X179652016Y-82220205D01*
G01X179628888Y-82238264D01*
G01X179627930Y-82238916D01*
G01X179627930Y-82238916D01*
G01X179569061Y-82268522D01*
G01X179505249Y-82290094D01*
G01X179454071Y-82303290D01*
G01X179433105Y-82307764D01*
G01X179433105Y-82307764D01*
G01X179433105Y-82307764D01*
G01X179358117Y-82320168D01*
G01X179289879Y-82328776D01*
G01X179234086Y-82334184D01*
G01X179196434Y-82336991D01*
G01X179182617Y-82337793D01*
G01X179182617Y-82337793D01*
G01X179182617Y-82337793D01*
G01X179118732Y-82340180D01*
G01X179049762Y-82341810D01*
G01X178982547Y-82342829D01*
G01X178923927Y-82343379D01*
G01X178880742Y-82343606D01*
G01X178859832Y-82343652D01*
G01X178858887Y-82343653D01*
G01X178858887Y-82343653D01*
G01X178873078Y-82428777D01*
G01X178893892Y-82502852D01*
G01X178918216Y-82565250D01*
G01X178942940Y-82615346D01*
G01X178964953Y-82652511D01*
G01X178981143Y-82676119D01*
G01X178988399Y-82685542D01*
G01X178988525Y-82685694D01*
G01X178988525Y-82685694D01*
G01X179044745Y-82737302D01*
G01X179106999Y-82772561D01*
G01X179168610Y-82794587D01*
G01X179222900Y-82806491D01*
G01X179263189Y-82811389D01*
G01X179282802Y-82812395D01*
G01X179283691Y-82812403D01*
G01X179283691Y-82812403D01*
G01X179372610Y-82804047D01*
G01X179445563Y-82782419D01*
G01X179503467Y-82752682D01*
G01X179547239Y-82719995D01*
G01X179577794Y-82689520D01*
G01X179596049Y-82666418D01*
G01X179602921Y-82655850D01*
G01X179603027Y-82655665D01*
G01X179603027Y-82655665D01*
G01X179678031Y-82700813D01*
G01X179712049Y-82745659D01*
G01X179721288Y-82776117D01*
G01X179721680Y-82781641D01*
G01X179721680Y-82781641D01*
G01X179701905Y-82839639D01*
G01X179657649Y-82883907D01*
G01X179611509Y-82912866D01*
G01X179586086Y-82924937D01*
G01X179585449Y-82925196D01*
G01X179585449Y-82925196D01*
G01X179514164Y-82948405D01*
G01X179443206Y-82963813D01*
G01X179378491Y-82973019D01*
G01X179325936Y-82977619D01*
G01X179291455Y-82979212D01*
G01X179280762Y-82979395D01*
G01X179280762Y-82979395D01*
G01X179199122Y-82974412D01*
G01X179124135Y-82960885D01*
G01X179056258Y-82940952D01*
G01X178995949Y-82916747D01*
G01X178943664Y-82890406D01*
G01X178899861Y-82864065D01*
G01X178864997Y-82839860D01*
G01X178839527Y-82819926D01*
G01X178823911Y-82806400D01*
G01X178818603Y-82801416D01*
G01X178818603Y-82801416D01*
G01X178818603Y-82801416D01*
G01X178774383Y-82749259D01*
G01X178738099Y-82690496D01*
G01X178708967Y-82627526D01*
G01X178686200Y-82562749D01*
G01X178669015Y-82498564D01*
G01X178656626Y-82437371D01*
G01X178648249Y-82381569D01*
G01X178643099Y-82333558D01*
G01X178640391Y-82295737D01*
G01X178639340Y-82270507D01*
G01X178639160Y-82260265D01*
G01X178639160Y-82260157D01*
G37*
%LPC*%
G36*
G01X178855957Y-82194239D02*
G01X178855957Y-82194239D01*
G01X178942040Y-82193814D01*
G01X179008500Y-82192862D01*
G01X179052422Y-82191870D01*
G01X179070890Y-82191323D01*
G01X179071289Y-82191309D01*
G01X179071289Y-82191309D01*
G01X179141218Y-82186761D01*
G01X179205707Y-82180053D01*
G01X179249706Y-82174473D01*
G01X179260254Y-82172999D01*
G01X179260254Y-82172999D01*
G01X179342519Y-82157040D01*
G01X179397891Y-82141041D01*
G01X179423994Y-82131292D01*
G01X179425781Y-82130518D01*
G01X179425781Y-82130518D01*
G01X179486799Y-82092505D01*
G01X179523059Y-82059432D01*
G01X179529053Y-82052881D01*
G01X179529053Y-82052881D01*
G01X179561967Y-81990224D01*
G01X179571668Y-81939180D01*
G01X179572266Y-81927637D01*
G01X179572266Y-81927637D01*
G01X179558080Y-81855958D01*
G01X179527979Y-81801002D01*
G01X179500646Y-81767958D01*
G01X179493164Y-81760645D01*
G01X179493164Y-81760645D01*
G01X179431776Y-81721198D01*
G01X179370105Y-81700219D01*
G01X179321029Y-81691876D01*
G01X179297427Y-81690337D01*
G01X179296875Y-81690332D01*
G01X179296875Y-81690332D01*
G01X179219608Y-81697808D01*
G01X179150972Y-81716911D01*
G01X179092481Y-81742658D01*
G01X179045648Y-81770067D01*
G01X179011986Y-81794153D01*
G01X178993006Y-81809934D01*
G01X178989258Y-81813379D01*
G01X178989258Y-81813379D01*
G01X178945466Y-81867338D01*
G01X178912476Y-81929786D01*
G01X178888765Y-81995550D01*
G01X178872805Y-82059455D01*
G01X178863072Y-82116324D01*
G01X178858040Y-82160985D01*
G01X178856184Y-82188260D01*
G01X178855957Y-82194239D01*
G37*
%LPD*%
G36*
G01X180093750Y-81555567D02*
G01X180093750Y-81555567D01*
G01X180161964Y-81547944D01*
G01X180196224Y-81546778D01*
G01X180196289Y-81546778D01*
G01X180196289Y-81546778D01*
G01X180275049Y-81567005D01*
G01X180312648Y-81609927D01*
G01X180324311Y-81648903D01*
G01X180325195Y-81659571D01*
G01X180325195Y-81659571D01*
G01X180323730Y-81700586D01*
G01X180323730Y-81700586D01*
G01X180322281Y-81761035D01*
G01X180322266Y-81765040D01*
G01X180322266Y-81765040D01*
G01X180366256Y-81707383D01*
G01X180412960Y-81658600D01*
G01X180453395Y-81622246D01*
G01X180478574Y-81601879D01*
G01X180482666Y-81598780D01*
G01X180482666Y-81598780D01*
G01X180553206Y-81557278D01*
G01X180615028Y-81535207D01*
G01X180660175Y-81526429D01*
G01X180680687Y-81524810D01*
G01X180681152Y-81524805D01*
G01X180681152Y-81524805D01*
G01X180754142Y-81537731D01*
G01X180787860Y-81555048D01*
G01X180789551Y-81556299D01*
G01X180789551Y-81556299D01*
G01X180824728Y-81613035D01*
G01X180829102Y-81641993D01*
G01X180829102Y-81641993D01*
G01X180812994Y-81703519D01*
G01X180783557Y-81756124D01*
G01X180769043Y-81776758D01*
G01X180769043Y-81776758D01*
G01X180704736Y-81737593D01*
G01X180650472Y-81722295D01*
G01X180624397Y-81719633D01*
G01X180624023Y-81719629D01*
G01X180624023Y-81719629D01*
G01X180555579Y-81732239D01*
G01X180497981Y-81758493D01*
G01X180462420Y-81781025D01*
G01X180456299Y-81785547D01*
G01X180456299Y-81785547D01*
G01X180402847Y-81835937D01*
G01X180360189Y-81888795D01*
G01X180330517Y-81933107D01*
G01X180316023Y-81957860D01*
G01X180314941Y-81959864D01*
G01X180314941Y-81959864D01*
G01X180313875Y-82012020D01*
G01X180313105Y-82077372D01*
G01X180312583Y-82148443D01*
G01X180312261Y-82217757D01*
G01X180312091Y-82277837D01*
G01X180312024Y-82321208D01*
G01X180312012Y-82340393D01*
G01X180312012Y-82340723D01*
G01X180312012Y-82340723D01*
G01X180313317Y-82444703D01*
G01X180316898Y-82538392D01*
G01X180322257Y-82621892D01*
G01X180328893Y-82695306D01*
G01X180336306Y-82758735D01*
G01X180343997Y-82812284D01*
G01X180351465Y-82856053D01*
G01X180358212Y-82890146D01*
G01X180363737Y-82914665D01*
G01X180367541Y-82929713D01*
G01X180369124Y-82935393D01*
G01X180369141Y-82935450D01*
G01X180369141Y-82935450D01*
G01X180301214Y-82954547D01*
G01X180258233Y-82958823D01*
G01X180254883Y-82958887D01*
G01X180254883Y-82958887D01*
G01X180176555Y-82945223D01*
G01X180142242Y-82924106D01*
G01X180138428Y-82920069D01*
G01X180138428Y-82920069D01*
G01X180115907Y-82861951D01*
G01X180108926Y-82803900D01*
G01X180108398Y-82787500D01*
G01X180108398Y-82787500D01*
G01X180108761Y-82738778D01*
G01X180109601Y-82670393D01*
G01X180110542Y-82603311D01*
G01X180111212Y-82558493D01*
G01X180111328Y-82550928D01*
G01X180111328Y-82550928D01*
G01X180112642Y-82457460D01*
G01X180113490Y-82380875D01*
G01X180113973Y-82321969D01*
G01X180114193Y-82281535D01*
G01X180114255Y-82260368D01*
G01X180114258Y-82257227D01*
G01X180114258Y-82257227D01*
G01X180113885Y-82157288D01*
G01X180112851Y-82063723D01*
G01X180111281Y-81976888D01*
G01X180109302Y-81897138D01*
G01X180107039Y-81824829D01*
G01X180104619Y-81760316D01*
G01X180102167Y-81703954D01*
G01X180099810Y-81656101D01*
G01X180097673Y-81617109D01*
G01X180095883Y-81587336D01*
G01X180094565Y-81567137D01*
G01X180093846Y-81556867D01*
G01X180093750Y-81555567D01*
G37*
G36*
G01X161170898Y-84375098D02*
G01X161170898Y-84375098D01*
G01X161189466Y-84307633D01*
G01X161202393Y-84293799D01*
G01X161202393Y-84293799D01*
G01X161261818Y-84274169D01*
G01X161302411Y-84269644D01*
G01X161302734Y-84269629D01*
G01X161302734Y-84269629D01*
G01X161350046Y-84268436D01*
G01X161413423Y-84267621D01*
G01X161482605Y-84267112D01*
G01X161547332Y-84266836D01*
G01X161597344Y-84266723D01*
G01X161622381Y-84266700D01*
G01X161623535Y-84266700D01*
G01X161978027Y-84266700D01*
G01X161978027Y-84266700D01*
G01X162097360Y-84266499D01*
G01X162199848Y-84265948D01*
G01X162286657Y-84265124D01*
G01X162358953Y-84264103D01*
G01X162417901Y-84262962D01*
G01X162464669Y-84261779D01*
G01X162500422Y-84260630D01*
G01X162526326Y-84259592D01*
G01X162543548Y-84258742D01*
G01X162553254Y-84258157D01*
G01X162556609Y-84257913D01*
G01X162556641Y-84257911D01*
G01X162556641Y-84257911D01*
G01X162565020Y-84319168D01*
G01X162565430Y-84335547D01*
G01X162565430Y-84335547D01*
G01X162546862Y-84403012D01*
G01X162533936Y-84416846D01*
G01X162533936Y-84416846D01*
G01X162474510Y-84436477D01*
G01X162433917Y-84441001D01*
G01X162433594Y-84441016D01*
G01X162433594Y-84441016D01*
G01X162390808Y-84441949D01*
G01X162332916Y-84442660D01*
G01X162265946Y-84443178D01*
G01X162195930Y-84443534D01*
G01X162128894Y-84443758D01*
G01X162070871Y-84443881D01*
G01X162027887Y-84443934D01*
G01X162005974Y-84443946D01*
G01X162004394Y-84443946D01*
G01X162004394Y-84443946D01*
G01X161999341Y-84554149D01*
G01X161995194Y-84651721D01*
G01X161991865Y-84737128D01*
G01X161989263Y-84810840D01*
G01X161987299Y-84873324D01*
G01X161985883Y-84925047D01*
G01X161984925Y-84966477D01*
G01X161984337Y-84998082D01*
G01X161984027Y-85020330D01*
G01X161983907Y-85033687D01*
G01X161983887Y-85038623D01*
G01X161983887Y-85038672D01*
G01X161983887Y-85640723D01*
G01X161983887Y-85640723D01*
G01X161985192Y-85744703D01*
G01X161988773Y-85838392D01*
G01X161994132Y-85921892D01*
G01X162000768Y-85995306D01*
G01X162008181Y-86058735D01*
G01X162015872Y-86112284D01*
G01X162023340Y-86156053D01*
G01X162030087Y-86190146D01*
G01X162035612Y-86214665D01*
G01X162039416Y-86229713D01*
G01X162040999Y-86235393D01*
G01X162041016Y-86235450D01*
G01X162041016Y-86235450D01*
G01X161977144Y-86252451D01*
G01X161919948Y-86258254D01*
G01X161899658Y-86258887D01*
G01X161899658Y-86258887D01*
G01X161820756Y-86245223D01*
G01X161786291Y-86224106D01*
G01X161782471Y-86220069D01*
G01X161782471Y-86220069D01*
G01X161759950Y-86161951D01*
G01X161752969Y-86103900D01*
G01X161752441Y-86087500D01*
G01X161752441Y-86087500D01*
G01X161752804Y-86038778D01*
G01X161753644Y-85970393D01*
G01X161754585Y-85903311D01*
G01X161755255Y-85858493D01*
G01X161755371Y-85850928D01*
G01X161755371Y-85850928D01*
G01X161756685Y-85757460D01*
G01X161757533Y-85680875D01*
G01X161758016Y-85621969D01*
G01X161758236Y-85581535D01*
G01X161758298Y-85560368D01*
G01X161758301Y-85557227D01*
G01X161758301Y-84956641D01*
G01X161758301Y-84956641D01*
G01X161758055Y-84874654D01*
G01X161757387Y-84796446D01*
G01X161756402Y-84723160D01*
G01X161755207Y-84655938D01*
G01X161753906Y-84595923D01*
G01X161752605Y-84544258D01*
G01X161751410Y-84502085D01*
G01X161750426Y-84470547D01*
G01X161749758Y-84450787D01*
G01X161749512Y-84443946D01*
G01X161749512Y-84443946D01*
G01X161749512Y-84443946D01*
G01X161641187Y-84444213D01*
G01X161545994Y-84444948D01*
G01X161463324Y-84446047D01*
G01X161392567Y-84447409D01*
G01X161333116Y-84448929D01*
G01X161284361Y-84450507D01*
G01X161245694Y-84452039D01*
G01X161216506Y-84453423D01*
G01X161196189Y-84454556D01*
G01X161184133Y-84455336D01*
G01X161179731Y-84455661D01*
G01X161179687Y-84455665D01*
G01X161179687Y-84455665D01*
G01X161171381Y-84394076D01*
G01X161170898Y-84375098D01*
G37*
G36*
G01X162700195Y-85554297D02*
G01X162700195Y-85554297D01*
G01X162704311Y-85468510D01*
G01X162715607Y-85389330D01*
G01X162732507Y-85317066D01*
G01X162753435Y-85252024D01*
G01X162776815Y-85194514D01*
G01X162801071Y-85144841D01*
G01X162824626Y-85103315D01*
G01X162845904Y-85070241D01*
G01X162863330Y-85045929D01*
G01X162875326Y-85030685D01*
G01X162880317Y-85024816D01*
G01X162880371Y-85024756D01*
G01X162880371Y-85024756D01*
G01X162937361Y-84970570D01*
G01X162998613Y-84927180D01*
G01X163061711Y-84893388D01*
G01X163124238Y-84867995D01*
G01X163183777Y-84849799D01*
G01X163237910Y-84837602D01*
G01X163284221Y-84830204D01*
G01X163320293Y-84826405D01*
G01X163343708Y-84825005D01*
G01X163352051Y-84824805D01*
G01X163352051Y-84824805D01*
G01X163352051Y-84824805D01*
G01X163436867Y-84830404D01*
G01X163514396Y-84845600D01*
G01X163584253Y-84867995D01*
G01X163646051Y-84895188D01*
G01X163699402Y-84924781D01*
G01X163743920Y-84954374D01*
G01X163779218Y-84981567D01*
G01X163804910Y-85003961D01*
G01X163820609Y-85019158D01*
G01X163825928Y-85024756D01*
G01X163825928Y-85024756D01*
G01X163825928Y-85024756D01*
G01X163870148Y-85081559D01*
G01X163906432Y-85142653D01*
G01X163935565Y-85206030D01*
G01X163958331Y-85269681D01*
G01X163975516Y-85331599D01*
G01X163987905Y-85389773D01*
G01X163996282Y-85442196D01*
G01X164001432Y-85486859D01*
G01X164004140Y-85521753D01*
G01X164005192Y-85544869D01*
G01X164005371Y-85554199D01*
G01X164005371Y-85554297D01*
G01X164005371Y-85554297D01*
G01X164001272Y-85640035D01*
G01X163990022Y-85719077D01*
G01X163973191Y-85791135D01*
G01X163952348Y-85855921D01*
G01X163929063Y-85913147D01*
G01X163904906Y-85962523D01*
G01X163881446Y-86003763D01*
G01X163860254Y-86036576D01*
G01X163842900Y-86060676D01*
G01X163830952Y-86075774D01*
G01X163825981Y-86081582D01*
G01X163825928Y-86081641D01*
G01X163825928Y-86081641D01*
G01X163769054Y-86135232D01*
G01X163707738Y-86178145D01*
G01X163644436Y-86211565D01*
G01X163581603Y-86236680D01*
G01X163521698Y-86254676D01*
G01X163467176Y-86266739D01*
G01X163420493Y-86274056D01*
G01X163384107Y-86277813D01*
G01X163360474Y-86279197D01*
G01X163352051Y-86279395D01*
G01X163352051Y-86279395D01*
G01X163352051Y-86279395D01*
G01X163268008Y-86273858D01*
G01X163191059Y-86258829D01*
G01X163121615Y-86236680D01*
G01X163060090Y-86209786D01*
G01X163006897Y-86180518D01*
G01X162962449Y-86151250D01*
G01X162927160Y-86124356D01*
G01X162901441Y-86102208D01*
G01X162885707Y-86087178D01*
G01X162880371Y-86081641D01*
G01X162880371Y-86081641D01*
G01X162880371Y-86081641D01*
G01X162835971Y-86025380D01*
G01X162799538Y-85964731D01*
G01X162770287Y-85901710D01*
G01X162747427Y-85838337D01*
G01X162730172Y-85776630D01*
G01X162717733Y-85718608D01*
G01X162709322Y-85666287D01*
G01X162704150Y-85621688D01*
G01X162701431Y-85586827D01*
G01X162700375Y-85563724D01*
G01X162700195Y-85554396D01*
G01X162700195Y-85554297D01*
G37*
%LPC*%
G36*
G01X162911133Y-85511817D02*
G01X162911133Y-85511817D01*
G01X162915761Y-85600749D01*
G01X162928036Y-85681333D01*
G01X162945544Y-85752688D01*
G01X162965869Y-85813933D01*
G01X162986596Y-85864188D01*
G01X163005310Y-85902571D01*
G01X163019598Y-85928202D01*
G01X163027044Y-85940199D01*
G01X163027588Y-85941016D01*
G01X163027588Y-85941016D01*
G01X163081060Y-86003391D01*
G01X163140367Y-86048433D01*
G01X163200577Y-86078963D01*
G01X163256758Y-86097803D01*
G01X163303977Y-86107775D01*
G01X163337303Y-86111701D01*
G01X163351804Y-86112401D01*
G01X163352051Y-86112403D01*
G01X163352051Y-86112403D01*
G01X163434535Y-86104906D01*
G01X163505756Y-86085502D01*
G01X163565304Y-86058821D01*
G01X163612770Y-86029495D01*
G01X163647743Y-86002153D01*
G01X163669813Y-85981426D01*
G01X163678570Y-85971944D01*
G01X163678711Y-85971778D01*
G01X163678711Y-85971778D01*
G01X163718730Y-85912902D01*
G01X163748411Y-85848845D01*
G01X163769299Y-85783932D01*
G01X163782938Y-85722490D01*
G01X163790874Y-85668842D01*
G01X163794651Y-85627315D01*
G01X163795813Y-85602234D01*
G01X163795898Y-85596778D01*
G01X163795898Y-85596778D01*
G01X163791124Y-85507788D01*
G01X163778463Y-85427049D01*
G01X163760405Y-85355474D01*
G01X163739441Y-85293973D01*
G01X163718062Y-85243458D01*
G01X163698759Y-85204839D01*
G01X163684022Y-85179029D01*
G01X163676342Y-85166938D01*
G01X163675781Y-85166114D01*
G01X163675781Y-85166114D01*
G01X163621210Y-85103205D01*
G01X163561547Y-85057779D01*
G01X163501519Y-85026988D01*
G01X163445852Y-85007986D01*
G01X163399274Y-84997929D01*
G01X163366512Y-84993970D01*
G01X163352293Y-84993264D01*
G01X163352051Y-84993262D01*
G01X163352051Y-84993262D01*
G01X163269645Y-85000837D01*
G01X163198626Y-85020443D01*
G01X163139356Y-85047402D01*
G01X163092195Y-85077034D01*
G01X163057507Y-85104661D01*
G01X163035653Y-85125604D01*
G01X163026994Y-85135184D01*
G01X163026855Y-85135352D01*
G01X163026855Y-85135352D01*
G01X162987336Y-85194728D01*
G01X162958026Y-85259156D01*
G01X162937400Y-85324330D01*
G01X162923931Y-85385943D01*
G01X162916094Y-85439690D01*
G01X162912365Y-85481264D01*
G01X162911217Y-85506360D01*
G01X162911133Y-85511817D01*
G37*
%LPD*%
G36*
G01X164320312Y-84029395D02*
G01X164320312Y-84029395D01*
G01X164388707Y-84021842D01*
G01X164425511Y-84020606D01*
G01X164425781Y-84020606D01*
G01X164425781Y-84020606D01*
G01X164505386Y-84038459D01*
G01X164546265Y-84077735D01*
G01X164561325Y-84117011D01*
G01X164563477Y-84134864D01*
G01X164563477Y-84134864D01*
G01X164563477Y-84134864D01*
G01X164562117Y-84182629D01*
G01X164559819Y-84251233D01*
G01X164559082Y-84272559D01*
G01X164559082Y-84272559D01*
G01X164556986Y-84333851D01*
G01X164554771Y-84400414D01*
G01X164552615Y-84466343D01*
G01X164550697Y-84525737D01*
G01X164549194Y-84572692D01*
G01X164548285Y-84601305D01*
G01X164548096Y-84607276D01*
G01X164548096Y-84607276D01*
G01X164545996Y-84682091D01*
G01X164544398Y-84754790D01*
G01X164543232Y-84823193D01*
G01X164542431Y-84885121D01*
G01X164541926Y-84938395D01*
G01X164541649Y-84980835D01*
G01X164541531Y-85010262D01*
G01X164541504Y-85024497D01*
G01X164541504Y-85025489D01*
G01X164541504Y-85025489D01*
G01X164605997Y-84971103D01*
G01X164670902Y-84927555D01*
G01X164734525Y-84893640D01*
G01X164795168Y-84868153D01*
G01X164851135Y-84849891D01*
G01X164900730Y-84837649D01*
G01X164942257Y-84830224D01*
G01X164974019Y-84826411D01*
G01X164994321Y-84825006D01*
G01X165001465Y-84824805D01*
G01X165001465Y-84824805D01*
G01X165001465Y-84824805D01*
G01X165087801Y-84832142D01*
G01X165159633Y-84850647D01*
G01X165216746Y-84875066D01*
G01X165258923Y-84900141D01*
G01X165285949Y-84920618D01*
G01X165297608Y-84931239D01*
G01X165298096Y-84931739D01*
G01X165298096Y-84931739D01*
G01X165343769Y-84992994D01*
G01X165373214Y-85056522D01*
G01X165389993Y-85115197D01*
G01X165397667Y-85161895D01*
G01X165399800Y-85189491D01*
G01X165399902Y-85193946D01*
G01X165399902Y-85193946D01*
G01X165393095Y-85272700D01*
G01X165375697Y-85343039D01*
G01X165352249Y-85403273D01*
G01X165327287Y-85451711D01*
G01X165305351Y-85486663D01*
G01X165290979Y-85506437D01*
G01X165287842Y-85510352D01*
G01X165287842Y-85510352D01*
G01X165236281Y-85560037D01*
G01X165178937Y-85598102D01*
G01X165120622Y-85626016D01*
G01X165066147Y-85645252D01*
G01X165020322Y-85657280D01*
G01X164987961Y-85663572D01*
G01X164973873Y-85665598D01*
G01X164973633Y-85665625D01*
G01X164973633Y-85665625D01*
G01X165031211Y-85758857D01*
G01X165079650Y-85833993D01*
G01X165119317Y-85892696D01*
G01X165150578Y-85936626D01*
G01X165173801Y-85967442D01*
G01X165189351Y-85986807D01*
G01X165197597Y-85996380D01*
G01X165199219Y-85998145D01*
G01X165199219Y-85998145D01*
G01X165264601Y-86052385D01*
G01X165322592Y-86081231D01*
G01X165365294Y-86092702D01*
G01X165384810Y-86094819D01*
G01X165385254Y-86094825D01*
G01X165385254Y-86094825D01*
G01X165451978Y-86085537D01*
G01X165462891Y-86081641D01*
G01X165462891Y-86081641D01*
G01X165487511Y-86149428D01*
G01X165490723Y-86169532D01*
G01X165490723Y-86169532D01*
G01X165463000Y-86227446D01*
G01X165428879Y-86251029D01*
G01X165427734Y-86251563D01*
G01X165427734Y-86251563D01*
G01X165356747Y-86273679D01*
G01X165312871Y-86279233D01*
G01X165307617Y-86279395D01*
G01X165307617Y-86279395D01*
G01X165236874Y-86267228D01*
G01X165175341Y-86238651D01*
G01X165127575Y-86205546D01*
G01X165098134Y-86179798D01*
G01X165090820Y-86172461D01*
G01X165090820Y-86172461D01*
G01X165044393Y-86119010D01*
G01X165017403Y-86085028D01*
G01X165015381Y-86082374D01*
G01X165015381Y-86082374D01*
G01X164974531Y-86025293D01*
G01X164945866Y-85982656D01*
G01X164940674Y-85974708D01*
G01X164940674Y-85974708D01*
G01X164900220Y-85910739D01*
G01X164879503Y-85876693D01*
G01X164877686Y-85873633D01*
G01X164877686Y-85873633D01*
G01X164845736Y-85819533D01*
G01X164816753Y-85770546D01*
G01X164808838Y-85757178D01*
G01X164808838Y-85757178D01*
G01X164766638Y-85685276D01*
G01X164750415Y-85656984D01*
G01X164749512Y-85655372D01*
G01X164749512Y-85655372D01*
G01X164683455Y-85624112D01*
G01X164670476Y-85593373D01*
G01X164670410Y-85592383D01*
G01X164670410Y-85592383D01*
G01X164682629Y-85530914D01*
G01X164686523Y-85520606D01*
G01X164686523Y-85520606D01*
G01X164768310Y-85535319D01*
G01X164820139Y-85541380D01*
G01X164838850Y-85542578D01*
G01X164838867Y-85542579D01*
G01X164838867Y-85542579D01*
G01X164924947Y-85533919D01*
G01X164994084Y-85512965D01*
G01X165045675Y-85487252D01*
G01X165079118Y-85464315D01*
G01X165093809Y-85451690D01*
G01X165094482Y-85451026D01*
G01X165094482Y-85451026D01*
G01X165141819Y-85388037D01*
G01X165168749Y-85326251D01*
G01X165181029Y-85275169D01*
G01X165184415Y-85244288D01*
G01X165184570Y-85239356D01*
G01X165184570Y-85239356D01*
G01X165173537Y-85163834D01*
G01X165150125Y-85106612D01*
G01X165128866Y-85072532D01*
G01X165123047Y-85065040D01*
G01X165123047Y-85065040D01*
G01X165067790Y-85022348D01*
G01X165009325Y-85001200D01*
G01X164964644Y-84994026D01*
G01X164950195Y-84993262D01*
G01X164950195Y-84993262D01*
G01X164880807Y-85001529D01*
G01X164816305Y-85020340D01*
G01X164765993Y-85040714D01*
G01X164739175Y-85053667D01*
G01X164737061Y-85054786D01*
G01X164737061Y-85054786D01*
G01X164670174Y-85096476D01*
G01X164614429Y-85139468D01*
G01X164572634Y-85176925D01*
G01X164547597Y-85202011D01*
G01X164541504Y-85208594D01*
G01X164541504Y-85643653D01*
G01X164541504Y-85643653D01*
G01X164542809Y-85746256D01*
G01X164546390Y-85838944D01*
G01X164551749Y-85921767D01*
G01X164558385Y-85994778D01*
G01X164565798Y-86058026D01*
G01X164573489Y-86111565D01*
G01X164580957Y-86155443D01*
G01X164587704Y-86189714D01*
G01X164593229Y-86214429D01*
G01X164597033Y-86229637D01*
G01X164598616Y-86235392D01*
G01X164598633Y-86235450D01*
G01X164598633Y-86235450D01*
G01X164529903Y-86254771D01*
G01X164488262Y-86258847D01*
G01X164485840Y-86258887D01*
G01X164485840Y-86258887D01*
G01X164407682Y-86245736D01*
G01X164373361Y-86226068D01*
G01X164370117Y-86222999D01*
G01X164370117Y-86222999D01*
G01X164344852Y-86165471D01*
G01X164338148Y-86112584D01*
G01X164337891Y-86103614D01*
G01X164337891Y-86103614D01*
G01X164338047Y-86063704D01*
G01X164338451Y-86003188D01*
G01X164339007Y-85931520D01*
G01X164339618Y-85858153D01*
G01X164340187Y-85792541D01*
G01X164340619Y-85744139D01*
G01X164340817Y-85722400D01*
G01X164340820Y-85722022D01*
G01X164340820Y-85722022D01*
G01X164341685Y-85622702D01*
G01X164342360Y-85535010D01*
G01X164342869Y-85458928D01*
G01X164343235Y-85394439D01*
G01X164343483Y-85341524D01*
G01X164343635Y-85300167D01*
G01X164343714Y-85270349D01*
G01X164343745Y-85252054D01*
G01X164343750Y-85245263D01*
G01X164343750Y-85245215D01*
G01X164343750Y-84896583D01*
G01X164343750Y-84896583D01*
G01X164343507Y-84775062D01*
G01X164342818Y-84664872D01*
G01X164341745Y-84565509D01*
G01X164340348Y-84476471D01*
G01X164338687Y-84397254D01*
G01X164336824Y-84327355D01*
G01X164334820Y-84266271D01*
G01X164332734Y-84213499D01*
G01X164330628Y-84168536D01*
G01X164328562Y-84130879D01*
G01X164326598Y-84100025D01*
G01X164324796Y-84075470D01*
G01X164323216Y-84056712D01*
G01X164321920Y-84043248D01*
G01X164320969Y-84034573D01*
G01X164320422Y-84030186D01*
G01X164320312Y-84029395D01*
G37*
G36*
G01X165729492Y-84524512D02*
G01X165729492Y-84524512D01*
G01X165746938Y-84455223D01*
G01X165773027Y-84416783D01*
G01X165777100Y-84412452D01*
G01X165777100Y-84412452D01*
G01X165838012Y-84375786D01*
G01X165882030Y-84366578D01*
G01X165887695Y-84366309D01*
G01X165887695Y-84366309D01*
G01X165954310Y-84384567D01*
G01X165989885Y-84409992D01*
G01X165992432Y-84412452D01*
G01X165992432Y-84412452D01*
G01X166027933Y-84473274D01*
G01X166036849Y-84518605D01*
G01X166037109Y-84524512D01*
G01X166037109Y-84524512D01*
G01X166020352Y-84594989D01*
G01X165994453Y-84634809D01*
G01X165989502Y-84640235D01*
G01X165989502Y-84640235D01*
G01X165928300Y-84677964D01*
G01X165886151Y-84686918D01*
G01X165881836Y-84687110D01*
G01X165881836Y-84687110D01*
G01X165814114Y-84670087D01*
G01X165777493Y-84645497D01*
G01X165774170Y-84642432D01*
G01X165774170Y-84642432D01*
G01X165739633Y-84583164D01*
G01X165729968Y-84534063D01*
G01X165729492Y-84524512D01*
G37*
G36*
G01X165767578Y-84855567D02*
G01X165767578Y-84855567D01*
G01X165835792Y-84847944D01*
G01X165870053Y-84846778D01*
G01X165870117Y-84846778D01*
G01X165870117Y-84846778D01*
G01X165951416Y-84864402D01*
G01X165993164Y-84903174D01*
G01X166008545Y-84941947D01*
G01X166010742Y-84959571D01*
G01X166010742Y-84959571D01*
G01X166010742Y-84959571D01*
G01X166008595Y-85012189D01*
G01X166005384Y-85073494D01*
G01X166004883Y-85082618D01*
G01X166004883Y-85082618D01*
G01X166001414Y-85150311D01*
G01X165998227Y-85220219D01*
G01X165995602Y-85282428D01*
G01X165993820Y-85327024D01*
G01X165993164Y-85344092D01*
G01X165993164Y-85344092D01*
G01X165993164Y-85344092D01*
G01X165990655Y-85421706D01*
G01X165988989Y-85492962D01*
G01X165987994Y-85554166D01*
G01X165987497Y-85601627D01*
G01X165987324Y-85631654D01*
G01X165987305Y-85640723D01*
G01X165987305Y-85640723D01*
G01X165988610Y-85744703D01*
G01X165992191Y-85838392D01*
G01X165997550Y-85921892D01*
G01X166004186Y-85995306D01*
G01X166011599Y-86058735D01*
G01X166019290Y-86112284D01*
G01X166026758Y-86156053D01*
G01X166033505Y-86190146D01*
G01X166039030Y-86214665D01*
G01X166042834Y-86229713D01*
G01X166044417Y-86235393D01*
G01X166044434Y-86235450D01*
G01X166044434Y-86235450D01*
G01X165976507Y-86254547D01*
G01X165933526Y-86258823D01*
G01X165930176Y-86258887D01*
G01X165930176Y-86258887D01*
G01X165851590Y-86245223D01*
G01X165816879Y-86224106D01*
G01X165812988Y-86220069D01*
G01X165812988Y-86220069D01*
G01X165789918Y-86161951D01*
G01X165782767Y-86103900D01*
G01X165782227Y-86087500D01*
G01X165782227Y-86087500D01*
G01X165782680Y-86038778D01*
G01X165783730Y-85970393D01*
G01X165784906Y-85903311D01*
G01X165785743Y-85858493D01*
G01X165785889Y-85850928D01*
G01X165785889Y-85850928D01*
G01X165787532Y-85757460D01*
G01X165788591Y-85680875D01*
G01X165789194Y-85621969D01*
G01X165789470Y-85581535D01*
G01X165789547Y-85560368D01*
G01X165789551Y-85557227D01*
G01X165789551Y-85557227D01*
G01X165789151Y-85457288D01*
G01X165788043Y-85363723D01*
G01X165786361Y-85276888D01*
G01X165784241Y-85197138D01*
G01X165781816Y-85124829D01*
G01X165779223Y-85060316D01*
G01X165776596Y-85003954D01*
G01X165774071Y-84956101D01*
G01X165771781Y-84917109D01*
G01X165769863Y-84887336D01*
G01X165768451Y-84867137D01*
G01X165767681Y-84856867D01*
G01X165767578Y-84855567D01*
G37*
G36*
G01X166406250Y-84260840D02*
G01X166406250Y-84260840D01*
G01X166473293Y-84253856D01*
G01X166522858Y-84252103D01*
G01X166529297Y-84252051D01*
G01X166529297Y-84252051D01*
G01X166613983Y-84269904D01*
G01X166657471Y-84309180D01*
G01X166673492Y-84348456D01*
G01X166675781Y-84366309D01*
G01X166675781Y-84366309D01*
G01X166675781Y-84366309D01*
G01X166673549Y-84419806D01*
G01X166670324Y-84480001D01*
G01X166669922Y-84487159D01*
G01X166669922Y-84487159D01*
G01X166666453Y-84553627D01*
G01X166663266Y-84622522D01*
G01X166660641Y-84683963D01*
G01X166658859Y-84728073D01*
G01X166658203Y-84744971D01*
G01X166658203Y-84744971D01*
G01X166658203Y-84744971D01*
G01X166655574Y-84826206D01*
G01X166653880Y-84900120D01*
G01X166652914Y-84962382D01*
G01X166652472Y-85008659D01*
G01X166652350Y-85034621D01*
G01X166652344Y-85038672D01*
G01X166652344Y-85308204D01*
G01X166652344Y-85308204D01*
G01X166652631Y-85432137D01*
G01X166653437Y-85542342D01*
G01X166654677Y-85639559D01*
G01X166656267Y-85724531D01*
G01X166658122Y-85797999D01*
G01X166660158Y-85860705D01*
G01X166662290Y-85913390D01*
G01X166664434Y-85956796D01*
G01X166666507Y-85991665D01*
G01X166668422Y-86018738D01*
G01X166670096Y-86038756D01*
G01X166671445Y-86052462D01*
G01X166672383Y-86060597D01*
G01X166672827Y-86063902D01*
G01X166672852Y-86064063D01*
G01X166672852Y-86064063D01*
G01X166760058Y-86067548D01*
G01X166823713Y-86069274D01*
G01X166861654Y-86069860D01*
G01X166872070Y-86069922D01*
G01X166872070Y-86069922D01*
G01X166990301Y-86068350D01*
G01X167093237Y-86064033D01*
G01X167181742Y-86057576D01*
G01X167256681Y-86049579D01*
G01X167318920Y-86040645D01*
G01X167369323Y-86031376D01*
G01X167408756Y-86022376D01*
G01X167438083Y-86014245D01*
G01X167458170Y-86007586D01*
G01X167469880Y-86003002D01*
G01X167474080Y-86001095D01*
G01X167474121Y-86001075D01*
G01X167474121Y-86001075D01*
G01X167490215Y-86071320D01*
G01X167495598Y-86122047D01*
G01X167496094Y-86132911D01*
G01X167496094Y-86132911D01*
G01X167478059Y-86198829D01*
G01X167468262Y-86210547D01*
G01X167468262Y-86210547D01*
G01X167439437Y-86223945D01*
G01X167390865Y-86234408D01*
G01X167328640Y-86242300D01*
G01X167258857Y-86247983D01*
G01X167187611Y-86251820D01*
G01X167120996Y-86254173D01*
G01X167065107Y-86255405D01*
G01X167026039Y-86255879D01*
G01X167009887Y-86255957D01*
G01X167009766Y-86255958D01*
G01X167009766Y-86255958D01*
G01X166891432Y-86255725D01*
G01X166794630Y-86255107D01*
G01X166717475Y-86254226D01*
G01X166658084Y-86253204D01*
G01X166614574Y-86252161D01*
G01X166585062Y-86251219D01*
G01X166567665Y-86250500D01*
G01X166560499Y-86250126D01*
G01X166560059Y-86250098D01*
G01X166560059Y-86250098D01*
G01X166484049Y-86232949D01*
G01X166452535Y-86211025D01*
G01X166450195Y-86208350D01*
G01X166450195Y-86208350D01*
G01X166427881Y-86149407D01*
G01X166421303Y-86092431D01*
G01X166420898Y-86078711D01*
G01X166420898Y-86078711D01*
G01X166421390Y-86029117D01*
G01X166422510Y-85961584D01*
G01X166423723Y-85897929D01*
G01X166424494Y-85859967D01*
G01X166424561Y-85856788D01*
G01X166424561Y-85856788D01*
G01X166426203Y-85769891D01*
G01X166427263Y-85697543D01*
G01X166427866Y-85641051D01*
G01X166428142Y-85601721D01*
G01X166428219Y-85580862D01*
G01X166428223Y-85577735D01*
G01X166428223Y-84956641D01*
G01X166428223Y-84956641D01*
G01X166427823Y-84857999D01*
G01X166426715Y-84765523D01*
G01X166425033Y-84679589D01*
G01X166422913Y-84600569D01*
G01X166420488Y-84528836D01*
G01X166417895Y-84464765D01*
G01X166415268Y-84408729D01*
G01X166412743Y-84361101D01*
G01X166410453Y-84322254D01*
G01X166408535Y-84292563D01*
G01X166407123Y-84272401D01*
G01X166406353Y-84262140D01*
G01X166406250Y-84260840D01*
G37*
G36*
G01X167629394Y-85857520D02*
G01X167629394Y-85857520D01*
G01X167637561Y-85772038D01*
G01X167656743Y-85707272D01*
G01X167678964Y-85662817D01*
G01X167696247Y-85638265D01*
G01X167701172Y-85632666D01*
G01X167701172Y-85632666D01*
G01X167754496Y-85590029D01*
G01X167812049Y-85557860D01*
G01X167862319Y-85536207D01*
G01X167893795Y-85525116D01*
G01X167898926Y-85523536D01*
G01X167898926Y-85523536D01*
G01X167962413Y-85508267D01*
G01X168029701Y-85494837D01*
G01X168098751Y-85483163D01*
G01X168167527Y-85473161D01*
G01X168233990Y-85464748D01*
G01X168296104Y-85457841D01*
G01X168351830Y-85452356D01*
G01X168399131Y-85448211D01*
G01X168435970Y-85445321D01*
G01X168460310Y-85443603D01*
G01X168470112Y-85442975D01*
G01X168470215Y-85442969D01*
G01X168470215Y-85442969D01*
G01X168466857Y-85345013D01*
G01X168458165Y-85264586D01*
G01X168446215Y-85200701D01*
G01X168433079Y-85152367D01*
G01X168420832Y-85118597D01*
G01X168411548Y-85098402D01*
G01X168407301Y-85090792D01*
G01X168407227Y-85090674D01*
G01X168407227Y-85090674D01*
G01X168364489Y-85048961D01*
G01X168307347Y-85021268D01*
G01X168246034Y-85004723D01*
G01X168190784Y-84996454D01*
G01X168151831Y-84993591D01*
G01X168139160Y-84993262D01*
G01X168139160Y-84993262D01*
G01X168069595Y-85003490D01*
G01X168009664Y-85024784D01*
G01X167972099Y-85043061D01*
G01X167965576Y-85046729D01*
G01X167965576Y-85046729D01*
G01X167908443Y-85091609D01*
G01X167866812Y-85140873D01*
G01X167840742Y-85181946D01*
G01X167830296Y-85202252D01*
G01X167830078Y-85202735D01*
G01X167830078Y-85202735D01*
G01X167748180Y-85171335D01*
G01X167707611Y-85129598D01*
G01X167693849Y-85094514D01*
G01X167692383Y-85082618D01*
G01X167692383Y-85082618D01*
G01X167708799Y-85015208D01*
G01X167747360Y-84961504D01*
G01X167792028Y-84922808D01*
G01X167826771Y-84900422D01*
G01X167836670Y-84895118D01*
G01X167836670Y-84895118D01*
G01X167904004Y-84867986D01*
G01X167972916Y-84848922D01*
G01X168038554Y-84836503D01*
G01X168096070Y-84829305D01*
G01X168140614Y-84825904D01*
G01X168167334Y-84824875D01*
G01X168172852Y-84824805D01*
G01X168172852Y-84824805D01*
G01X168266456Y-84829757D01*
G01X168346330Y-84842732D01*
G01X168412704Y-84860913D01*
G01X168465812Y-84881478D01*
G01X168505884Y-84901610D01*
G01X168533153Y-84918489D01*
G01X168547850Y-84929296D01*
G01X168550781Y-84931739D01*
G01X168550781Y-84931739D01*
G01X168591801Y-84981008D01*
G01X168622224Y-85041509D01*
G01X168643634Y-85107389D01*
G01X168657614Y-85172799D01*
G01X168665748Y-85231887D01*
G01X168669619Y-85278802D01*
G01X168670811Y-85307695D01*
G01X168670898Y-85314063D01*
G01X168670898Y-85314063D01*
G01X168670302Y-85360266D01*
G01X168669085Y-85430515D01*
G01X168668104Y-85483437D01*
G01X168667969Y-85490577D01*
G01X168667969Y-85490577D01*
G01X168666429Y-85580448D01*
G01X168665554Y-85648034D01*
G01X168665154Y-85693380D01*
G01X168665044Y-85716533D01*
G01X168665039Y-85719825D01*
G01X168665039Y-85719825D01*
G01X168666639Y-85818268D01*
G01X168670980Y-85906200D01*
G01X168677379Y-85983655D01*
G01X168685148Y-86050668D01*
G01X168693603Y-86107276D01*
G01X168702059Y-86153512D01*
G01X168709828Y-86189413D01*
G01X168716227Y-86215012D01*
G01X168720568Y-86230346D01*
G01X168722168Y-86235450D01*
G01X168722168Y-86235450D01*
G01X168722168Y-86235450D01*
G01X168657027Y-86254314D01*
G01X168609902Y-86258791D01*
G01X168604980Y-86258887D01*
G01X168604980Y-86258887D01*
G01X168533752Y-86243140D01*
G01X168511963Y-86227393D01*
G01X168511963Y-86227393D01*
G01X168511963Y-86227393D01*
G01X168484898Y-86169258D01*
G01X168476171Y-86127772D01*
G01X168476074Y-86127051D01*
G01X168476074Y-86127051D01*
G01X168408957Y-86175577D01*
G01X168343000Y-86212520D01*
G01X168280373Y-86239459D01*
G01X168223250Y-86257974D01*
G01X168173801Y-86269645D01*
G01X168134198Y-86276051D01*
G01X168106615Y-86278771D01*
G01X168093221Y-86279385D01*
G01X168092285Y-86279395D01*
G01X168092285Y-86279395D01*
G01X167990139Y-86271727D01*
G01X167904248Y-86250451D01*
G01X167833202Y-86218159D01*
G01X167775592Y-86177443D01*
G01X167730012Y-86130895D01*
G01X167695051Y-86081107D01*
G01X167669302Y-86030671D01*
G01X167651356Y-85982179D01*
G01X167639804Y-85938223D01*
G01X167633238Y-85901395D01*
G01X167630250Y-85874287D01*
G01X167629431Y-85859491D01*
G01X167629394Y-85857520D01*
G37*
%LPC*%
G36*
G01X167840332Y-85857520D02*
G01X167840332Y-85857520D01*
G01X167850764Y-85939421D01*
G01X167874502Y-85999433D01*
G01X167900212Y-86037982D01*
G01X167916558Y-86055498D01*
G01X167917969Y-86056739D01*
G01X167917969Y-86056739D01*
G01X167978960Y-86092899D01*
G01X168041146Y-86112129D01*
G01X168091040Y-86119777D01*
G01X168115156Y-86121188D01*
G01X168115723Y-86121192D01*
G01X168115723Y-86121192D01*
G01X168197323Y-86114007D01*
G01X168270239Y-86095412D01*
G01X168333190Y-86069843D01*
G01X168384899Y-86041738D01*
G01X168424088Y-86015536D01*
G01X168449479Y-85995672D01*
G01X168459793Y-85986586D01*
G01X168459961Y-85986426D01*
G01X168459961Y-85986426D01*
G01X168457799Y-85926081D01*
G01X168457096Y-85865508D01*
G01X168457031Y-85845801D01*
G01X168457031Y-85845801D01*
G01X168458774Y-85769088D01*
G01X168461559Y-85698762D01*
G01X168464492Y-85641987D01*
G01X168466676Y-85605925D01*
G01X168467285Y-85596778D01*
G01X168467285Y-85596778D01*
G01X168385638Y-85605550D01*
G01X168343279Y-85610607D01*
G01X168336914Y-85611426D01*
G01X168336914Y-85611426D01*
G01X168271836Y-85619678D01*
G01X168223058Y-85625590D01*
G01X168218994Y-85626075D01*
G01X168218994Y-85626075D01*
G01X168142065Y-85637139D01*
G01X168110210Y-85643398D01*
G01X168109131Y-85643653D01*
G01X168109131Y-85643653D01*
G01X168046624Y-85660481D01*
G01X168021240Y-85667823D01*
G01X168021240Y-85667823D01*
G01X167956582Y-85693744D01*
G01X167943603Y-85701514D01*
G01X167943603Y-85701514D01*
G01X167894268Y-85738078D01*
G01X167889404Y-85741797D01*
G01X167889404Y-85741797D01*
G01X167852161Y-85788561D01*
G01X167850586Y-85792334D01*
G01X167850586Y-85792334D01*
G01X167840474Y-85851810D01*
G01X167840332Y-85857520D01*
G37*
%LPD*%
G36*
G01X169066406Y-84029395D02*
G01X169066406Y-84029395D01*
G01X169128852Y-84021990D01*
G01X169173481Y-84020610D01*
G01X169174805Y-84020606D01*
G01X169174805Y-84020606D01*
G01X169254960Y-84039761D01*
G01X169294666Y-84081161D01*
G01X169308135Y-84120707D01*
G01X169309570Y-84134864D01*
G01X169309570Y-84134864D01*
G01X169309435Y-84164887D01*
G01X169309079Y-84218186D01*
G01X169308581Y-84285878D01*
G01X169308018Y-84359080D01*
G01X169307466Y-84428911D01*
G01X169307004Y-84486488D01*
G01X169306708Y-84522928D01*
G01X169306641Y-84531104D01*
G01X169306641Y-84531104D01*
G01X169305707Y-84648562D01*
G01X169304997Y-84745249D01*
G01X169304479Y-84822857D01*
G01X169304123Y-84883081D01*
G01X169303898Y-84927614D01*
G01X169303775Y-84958149D01*
G01X169303723Y-84976379D01*
G01X169303711Y-84983999D01*
G01X169303711Y-84984473D01*
G01X169303711Y-84984473D01*
G01X169376766Y-84937366D01*
G01X169449476Y-84900576D01*
G01X169519690Y-84872827D01*
G01X169585253Y-84852845D01*
G01X169644015Y-84839355D01*
G01X169693823Y-84831081D01*
G01X169732523Y-84826748D01*
G01X169757964Y-84825081D01*
G01X169767993Y-84824805D01*
G01X169768066Y-84824805D01*
G01X169768066Y-84824805D01*
G01X169848514Y-84831559D01*
G01X169920713Y-84849470D01*
G01X169984069Y-84875015D01*
G01X170037992Y-84904671D01*
G01X170081889Y-84934915D01*
G01X170115167Y-84962222D01*
G01X170137234Y-84983069D01*
G01X170147497Y-84993933D01*
G01X170148193Y-84994727D01*
G01X170148193Y-84994727D01*
G01X170187692Y-85050168D01*
G01X170219320Y-85112536D01*
G01X170243952Y-85178823D01*
G01X170262463Y-85246024D01*
G01X170275726Y-85311133D01*
G01X170284617Y-85371145D01*
G01X170290010Y-85423053D01*
G01X170292779Y-85463852D01*
G01X170293800Y-85490536D01*
G01X170293945Y-85500098D01*
G01X170293945Y-85500098D01*
G01X170293945Y-85500098D01*
G01X170290231Y-85586455D01*
G01X170280037Y-85667196D01*
G01X170264786Y-85741796D01*
G01X170245900Y-85809729D01*
G01X170224801Y-85870471D01*
G01X170202911Y-85923496D01*
G01X170181654Y-85968278D01*
G01X170162452Y-86004293D01*
G01X170146726Y-86031014D01*
G01X170135900Y-86047916D01*
G01X170131396Y-86054474D01*
G01X170131348Y-86054541D01*
G01X170131348Y-86054541D01*
G01X170078711Y-86115477D01*
G01X170020160Y-86164270D01*
G01X169958392Y-86202270D01*
G01X169896105Y-86230827D01*
G01X169835998Y-86251288D01*
G01X169780769Y-86265004D01*
G01X169733117Y-86273324D01*
G01X169695738Y-86277596D01*
G01X169671332Y-86279170D01*
G01X169662598Y-86279395D01*
G01X169662598Y-86279395D01*
G01X169662598Y-86279395D01*
G01X169575890Y-86274744D01*
G01X169494184Y-86261979D01*
G01X169418142Y-86242880D01*
G01X169348421Y-86219230D01*
G01X169285684Y-86192808D01*
G01X169230588Y-86165398D01*
G01X169183795Y-86138778D01*
G01X169145964Y-86114732D01*
G01X169117756Y-86095040D01*
G01X169099830Y-86081483D01*
G01X169092845Y-86075842D01*
G01X169092773Y-86075782D01*
G01X169092773Y-86075782D01*
G01X169097339Y-86027467D01*
G01X169101227Y-85970538D01*
G01X169104491Y-85907297D01*
G01X169107187Y-85840041D01*
G01X169109367Y-85771071D01*
G01X169111086Y-85702686D01*
G01X169112398Y-85637185D01*
G01X169113356Y-85576868D01*
G01X169114016Y-85524035D01*
G01X169114430Y-85480985D01*
G01X169114652Y-85450017D01*
G01X169114738Y-85433431D01*
G01X169114746Y-85431250D01*
G01X169114746Y-85431250D01*
G01X169114531Y-85371938D01*
G01X169113926Y-85307007D01*
G01X169112996Y-85238010D01*
G01X169111804Y-85166501D01*
G01X169110412Y-85094032D01*
G01X169108886Y-85022154D01*
G01X169107286Y-84952421D01*
G01X169105678Y-84886386D01*
G01X169104124Y-84825600D01*
G01X169102687Y-84771617D01*
G01X169101432Y-84725988D01*
G01X169100420Y-84690267D01*
G01X169099717Y-84666006D01*
G01X169099383Y-84654757D01*
G01X169099365Y-84654151D01*
G01X169099365Y-84654151D01*
G01X169095642Y-84539095D01*
G01X169091895Y-84438388D01*
G01X169088185Y-84351164D01*
G01X169084573Y-84276558D01*
G01X169081119Y-84213702D01*
G01X169077885Y-84161730D01*
G01X169074931Y-84119776D01*
G01X169072318Y-84086975D01*
G01X169070106Y-84062459D01*
G01X169068357Y-84045362D01*
G01X169067131Y-84034818D01*
G01X169066489Y-84029961D01*
G01X169066406Y-84029395D01*
G37*
%LPC*%
G36*
G01X169300781Y-85955665D02*
G01X169300781Y-85955665D01*
G01X169365681Y-86005182D01*
G01X169431051Y-86042989D01*
G01X169494326Y-86070667D01*
G01X169552938Y-86089794D01*
G01X169604320Y-86101950D01*
G01X169645907Y-86108714D01*
G01X169675131Y-86111666D01*
G01X169689426Y-86112386D01*
G01X169690430Y-86112403D01*
G01X169690430Y-86112403D01*
G01X169767594Y-86103188D01*
G01X169833007Y-86079337D01*
G01X169886716Y-86046542D01*
G01X169928769Y-86010495D01*
G01X169959215Y-85976887D01*
G01X169978102Y-85951410D01*
G01X169985479Y-85939756D01*
G01X169985596Y-85939551D01*
G01X169985596Y-85939551D01*
G01X170016624Y-85875062D01*
G01X170040246Y-85808132D01*
G01X170057472Y-85741891D01*
G01X170069311Y-85679467D01*
G01X170076773Y-85623989D01*
G01X170080869Y-85578585D01*
G01X170082609Y-85546384D01*
G01X170083002Y-85530515D01*
G01X170083008Y-85529395D01*
G01X170083008Y-85529395D01*
G01X170078729Y-85438244D01*
G01X170067380Y-85358833D01*
G01X170051194Y-85291131D01*
G01X170032403Y-85235109D01*
G01X170013240Y-85190735D01*
G01X169995938Y-85157980D01*
G01X169982729Y-85136812D01*
G01X169975845Y-85127203D01*
G01X169975342Y-85126563D01*
G01X169975342Y-85126563D01*
G01X169916738Y-85069482D01*
G01X169855022Y-85031586D01*
G01X169796605Y-85008945D01*
G01X169747900Y-84997630D01*
G01X169715319Y-84993712D01*
G01X169705078Y-84993262D01*
G01X169700684Y-84993262D01*
G01X169700684Y-84993262D01*
G01X169625808Y-84999550D01*
G01X169555155Y-85016226D01*
G01X169490289Y-85040009D01*
G01X169432773Y-85067620D01*
G01X169384172Y-85095778D01*
G01X169346050Y-85121202D01*
G01X169319973Y-85140611D01*
G01X169307503Y-85150726D01*
G01X169306641Y-85151465D01*
G01X169306641Y-85151465D01*
G01X169306886Y-85199401D01*
G01X169307417Y-85266717D01*
G01X169307924Y-85324373D01*
G01X169308105Y-85344092D01*
G01X169308105Y-85344092D01*
G01X169308820Y-85430278D01*
G01X169309254Y-85500432D01*
G01X169309477Y-85552762D01*
G01X169309559Y-85585475D01*
G01X169309570Y-85596778D01*
G01X169309570Y-85596778D01*
G01X169309570Y-85596778D01*
G01X169309102Y-85690535D01*
G01X169307889Y-85770043D01*
G01X169306221Y-85835349D01*
G01X169304389Y-85886502D01*
G01X169302680Y-85923549D01*
G01X169301384Y-85946540D01*
G01X169300792Y-85955522D01*
G01X169300781Y-85955665D01*
G37*
%LPD*%
G36*
G01X170529785Y-86040625D02*
G01X170529785Y-86040625D01*
G01X170552378Y-85982591D01*
G01X170601209Y-85942796D01*
G01X170647853Y-85920470D01*
G01X170664551Y-85914649D01*
G01X170664551Y-85914649D01*
G01X170699293Y-85976224D01*
G01X170744798Y-86021488D01*
G01X170785757Y-86050076D01*
G01X170806861Y-86061623D01*
G01X170807373Y-86061866D01*
G01X170807373Y-86061866D01*
G01X170877365Y-86087486D01*
G01X170944328Y-86102542D01*
G01X171000000Y-86109843D01*
G01X171036119Y-86112196D01*
G01X171045410Y-86112403D01*
G01X171045410Y-86112403D01*
G01X171126193Y-86104727D01*
G01X171189155Y-86087259D01*
G01X171232051Y-86068340D01*
G01X171252633Y-86056312D01*
G01X171254150Y-86055274D01*
G01X171254150Y-86055274D01*
G01X171300304Y-86003478D01*
G01X171324005Y-85945228D01*
G01X171332737Y-85897689D01*
G01X171333984Y-85878028D01*
G01X171333984Y-85878028D01*
G01X171333984Y-85878028D01*
G01X171315725Y-85806970D01*
G01X171279973Y-85760871D01*
G01X171255269Y-85741041D01*
G01X171254150Y-85740333D01*
G01X171254150Y-85740333D01*
G01X171190258Y-85708381D01*
G01X171127533Y-85685218D01*
G01X171079777Y-85671119D01*
G01X171060791Y-85666358D01*
G01X171060791Y-85666358D01*
G01X171060791Y-85666358D01*
G01X170986982Y-85648623D01*
G01X170920307Y-85631096D01*
G01X170868113Y-85616539D01*
G01X170837745Y-85607712D01*
G01X170833008Y-85606299D01*
G01X170833008Y-85606299D01*
G01X170763080Y-85576323D01*
G01X170706049Y-85538541D01*
G01X170664818Y-85503014D01*
G01X170642286Y-85479801D01*
G01X170638916Y-85475928D01*
G01X170638916Y-85475928D01*
G01X170601509Y-85416008D01*
G01X170578109Y-85351676D01*
G01X170565429Y-85292005D01*
G01X170560186Y-85246068D01*
G01X170559092Y-85222937D01*
G01X170559082Y-85221778D01*
G01X170559082Y-85221778D01*
G01X170568470Y-85147750D01*
G01X170592463Y-85083205D01*
G01X170624801Y-85029121D01*
G01X170659225Y-84986477D01*
G01X170689476Y-84956252D01*
G01X170709296Y-84939425D01*
G01X170713623Y-84936133D01*
G01X170713623Y-84936133D01*
G01X170780254Y-84895616D01*
G01X170847751Y-84866358D01*
G01X170912244Y-84846527D01*
G01X170969862Y-84834289D01*
G01X171016734Y-84827811D01*
G01X171048989Y-84825261D01*
G01X171062756Y-84824806D01*
G01X171062988Y-84824805D01*
G01X171062988Y-84824805D01*
G01X171137667Y-84830193D01*
G01X171206787Y-84843417D01*
G01X171265787Y-84860071D01*
G01X171310104Y-84875744D01*
G01X171335177Y-84886030D01*
G01X171339111Y-84887793D01*
G01X171339111Y-84887793D01*
G01X171410308Y-84934685D01*
G01X171450814Y-84985413D01*
G01X171469284Y-85029777D01*
G01X171474375Y-85057576D01*
G01X171474609Y-85062110D01*
G01X171474609Y-85062110D01*
G01X171452016Y-85122647D01*
G01X171403186Y-85162045D01*
G01X171356542Y-85182929D01*
G01X171339844Y-85188086D01*
G01X171339844Y-85188086D01*
G01X171302737Y-85127596D01*
G01X171255922Y-85082494D01*
G01X171217319Y-85055097D01*
G01X171204346Y-85047461D01*
G01X171204346Y-85047461D01*
G01X171134058Y-85018006D01*
G01X171069571Y-85001797D01*
G01X171019707Y-84994877D01*
G01X170993287Y-84993290D01*
G01X170991211Y-84993262D01*
G01X170991211Y-84993262D01*
G01X170915164Y-85003245D01*
G01X170856826Y-85024427D01*
G01X170821734Y-85043661D01*
G01X170813965Y-85048926D01*
G01X170813965Y-85048926D01*
G01X170767142Y-85103149D01*
G01X170745622Y-85159439D01*
G01X170739564Y-85198502D01*
G01X170739258Y-85205665D01*
G01X170739258Y-85205665D01*
G01X170756502Y-85275445D01*
G01X170790990Y-85322524D01*
G01X170816856Y-85344765D01*
G01X170819092Y-85346290D01*
G01X170819092Y-85346290D01*
G01X170880359Y-85378987D01*
G01X170941059Y-85403087D01*
G01X170988982Y-85418349D01*
G01X171011916Y-85424529D01*
G01X171012451Y-85424659D01*
G01X171012451Y-85424659D01*
G01X171086260Y-85443163D01*
G01X171152935Y-85461128D01*
G01X171205129Y-85475885D01*
G01X171235497Y-85484767D01*
G01X171240234Y-85486182D01*
G01X171240234Y-85486182D01*
G01X171310163Y-85515432D01*
G01X171367193Y-85551536D01*
G01X171408425Y-85585180D01*
G01X171430956Y-85607054D01*
G01X171434326Y-85610694D01*
G01X171434326Y-85610694D01*
G01X171473285Y-85669739D01*
G01X171496916Y-85732370D01*
G01X171509051Y-85788989D01*
G01X171513521Y-85829999D01*
G01X171514160Y-85845801D01*
G01X171514160Y-85845801D01*
G01X171514160Y-85845801D01*
G01X171505999Y-85929000D01*
G01X171484877Y-86000081D01*
G01X171455834Y-86058901D01*
G01X171423911Y-86105314D01*
G01X171394148Y-86139176D01*
G01X171371586Y-86160342D01*
G01X171361265Y-86168667D01*
G01X171361084Y-86168799D01*
G01X171361084Y-86168799D01*
G01X171299041Y-86206567D01*
G01X171234675Y-86234579D01*
G01X171171528Y-86254292D01*
G01X171113143Y-86267164D01*
G01X171063065Y-86274653D01*
G01X171024836Y-86278217D01*
G01X171002000Y-86279314D01*
G01X170997070Y-86279395D01*
G01X170997070Y-86279395D01*
G01X170917783Y-86275213D01*
G01X170846079Y-86264524D01*
G01X170784005Y-86250118D01*
G01X170733609Y-86234782D01*
G01X170696938Y-86221305D01*
G01X170676037Y-86212475D01*
G01X170671875Y-86210547D01*
G01X170671875Y-86210547D01*
G01X170597214Y-86161848D01*
G01X170554738Y-86112306D01*
G01X170535370Y-86070439D01*
G01X170530031Y-86044762D01*
G01X170529785Y-86040625D01*
G37*
G04 end of program *
M02*
